<?xml version="1.0" standalone="no"?>
<!DOCTYPE svg PUBLIC "-//W3C//DTD SVG 20010904//EN"
 "http://www.w3.org/TR/2001/REC-SVG-20010904/DTD/svg10.dtd">
<svg version="1.0" xmlns="http://www.w3.org/2000/svg"
 width="4328.000000pt" height="2006.000000pt" viewBox="0 0 4328.000000 2006.000000"
 preserveAspectRatio="xMidYMid meet">
<metadata>
Created by potrace 1.15, written by Peter Selinger 2001-2017
</metadata>
<g transform="translate(0.000000,2006.000000) scale(0.100000,-0.100000)"
fill="#000000" stroke="none">
<path d="M35760 19670 c-144 -17 -238 -40 -360 -87 -146 -57 -171 -73 -363
-230 -152 -125 -347 -353 -462 -539 -37 -60 -102 -161 -145 -225 -101 -151
-212 -378 -239 -489 -11 -47 -27 -105 -36 -130 -9 -25 -28 -88 -43 -140 -24
-90 -26 -108 -26 -325 -1 -262 15 -450 50 -580 13 -49 34 -126 45 -170 11 -44
27 -103 35 -131 8 -28 19 -73 25 -100 5 -27 15 -69 20 -94 17 -76 21 -110 15
-110 -4 0 -34 14 -68 31 -72 36 -187 80 -413 155 -88 29 -187 63 -220 75 -33
12 -105 34 -160 49 -175 48 -260 77 -300 104 -21 15 -50 29 -64 32 -14 3 -40
12 -58 20 -17 8 -35 14 -40 14 -18 0 -199 63 -233 81 -19 11 -42 19 -51 19 -9
0 -56 19 -105 42 l-89 42 -143 4 c-239 7 -258 -1 -350 -152 -81 -132 -86 -163
-77 -516 15 -595 12 -536 36 -673 6 -32 12 -171 15 -310 2 -139 9 -373 14
-522 5 -148 10 -445 10 -660 0 -274 5 -444 16 -570 11 -124 18 -334 21 -675
11 -1339 14 -1552 28 -1715 19 -219 22 -1071 6 -1475 -8 -223 -9 -499 0 -1130
6 -459 13 -882 15 -940 2 -58 8 -251 14 -430 6 -179 14 -437 18 -575 l7 -250
28 -48 c42 -71 89 -98 194 -109 125 -13 3953 -12 4423 1 212 7 924 11 1640 10
696 -1 1286 2 1312 6 27 4 60 3 80 -4 96 -30 1052 -51 1177 -25 36 8 78 14 92
14 38 0 173 36 264 71 44 17 94 35 110 41 37 13 165 89 220 129 22 17 74 53
115 80 110 73 200 150 327 279 110 111 144 156 249 325 68 109 239 497 295
670 49 150 143 524 195 780 43 206 46 233 51 425 6 208 5 216 -38 470 -7 36
-20 90 -29 120 -10 30 -23 75 -30 100 -32 124 -160 385 -292 595 -21 33 -45
74 -54 90 -55 99 -380 427 -674 680 -135 116 -170 143 -255 194 -38 23 -99 61
-135 83 -36 22 -92 54 -125 70 -122 62 -226 141 -361 276 -151 150 -266 296
-326 417 -23 44 -64 118 -92 165 -78 128 -202 398 -243 529 -36 115 -37 117
-37 301 -1 159 2 197 21 270 12 47 24 106 28 131 8 60 60 168 118 244 74 97
258 281 304 304 93 47 131 54 258 49 99 -4 136 -10 210 -36 87 -29 210 -89
307 -149 66 -40 225 -175 233 -197 4 -10 22 -35 40 -55 17 -20 38 -48 46 -62
8 -15 23 -44 35 -65 36 -67 57 -183 52 -288 -3 -80 -8 -102 -37 -160 -40 -81
-107 -151 -158 -165 -38 -11 -135 -2 -218 20 -51 13 -151 74 -235 142 -79 64
-129 148 -130 217 -2 187 -223 268 -347 127 -39 -44 -46 -79 -41 -194 3 -83 6
-94 58 -198 63 -128 112 -184 244 -283 218 -164 349 -216 577 -229 101 -5 127
-3 198 16 203 55 365 227 452 482 31 93 40 381 14 472 -86 301 -159 424 -348
589 -136 119 -179 147 -392 258 -191 100 -295 131 -501 150 -130 12 -235 5
-319 -20 -203 -61 -271 -108 -473 -324 -143 -153 -178 -199 -241 -317 -57
-108 -72 -151 -102 -294 -12 -55 -25 -120 -30 -145 -22 -106 -33 -339 -20
-438 22 -175 72 -351 138 -492 105 -223 150 -312 201 -397 32 -54 79 -136 104
-183 87 -164 205 -312 402 -503 150 -146 257 -224 451 -327 43 -23 108 -61
144 -84 36 -24 84 -54 106 -67 51 -31 228 -181 389 -333 309 -289 359 -350
501 -602 36 -65 81 -137 99 -160 21 -26 46 -82 69 -150 49 -148 64 -218 76
-359 14 -151 9 -472 -7 -501 -6 -12 -14 -37 -16 -55 -3 -19 -12 -52 -20 -74
-8 -22 -15 -57 -16 -79 0 -36 -5 -63 -51 -271 -29 -130 -65 -244 -116 -370
-43 -105 -53 -129 -94 -220 -9 -22 -24 -56 -33 -75 -9 -19 -29 -59 -45 -87
-16 -29 -35 -69 -41 -88 -16 -48 -57 -127 -103 -197 -20 -32 -53 -84 -74 -115
-49 -77 -205 -231 -294 -290 -40 -27 -84 -57 -99 -68 -155 -116 -267 -170
-400 -191 -47 -7 -112 -18 -145 -23 -111 -18 -389 -36 -550 -35 -137 1 -358
23 -372 38 -2 2 1 30 7 63 80 397 91 523 89 1003 -1 217 -5 413 -9 435 -5 22
-11 76 -14 120 -5 76 -40 258 -85 445 -11 47 -25 117 -31 155 -23 151 -60 273
-180 600 -62 167 -141 396 -180 520 -34 108 -121 354 -145 410 -9 22 -32 83
-51 137 -18 53 -52 138 -75 190 -22 51 -47 113 -54 138 -16 57 -72 175 -100
215 -29 40 -244 483 -271 557 -7 20 -19 47 -27 60 -9 13 -27 52 -42 88 -24 59
-203 433 -241 505 -9 17 -47 89 -84 160 -36 72 -83 158 -103 192 -20 34 -37
64 -37 66 0 9 -111 188 -154 248 -78 110 -157 225 -239 349 -90 137 -381 548
-478 675 l-61 80 63 6 c249 25 721 130 821 182 234 123 489 425 587 697 54
151 72 262 75 462 4 260 -32 523 -100 737 -51 158 -254 418 -418 535 -56 40
-263 146 -285 146 -4 0 -68 20 -142 44 -247 81 -232 78 -478 74 -121 -1 -221
-1 -221 2 0 3 8 17 18 31 77 117 170 261 230 357 93 150 191 483 192 657 1 28
7 77 15 110 13 53 13 76 0 195 -22 192 -42 296 -81 416 -12 40 -27 80 -33 90
-6 11 -24 51 -40 90 -36 85 -77 156 -154 268 -110 161 -241 271 -432 361 -53
25 -99 45 -102 45 -4 0 -25 9 -47 19 -56 27 -149 56 -221 70 -177 34 -757 60
-915 41z m467 -400 c54 -5 161 -14 238 -21 162 -13 226 -31 380 -103 120 -57
213 -122 260 -182 121 -154 211 -341 249 -519 21 -99 39 -282 30 -297 -5 -7
-12 -67 -16 -133 -10 -158 -19 -211 -58 -325 -41 -120 -50 -136 -175 -330 -61
-94 -186 -246 -354 -429 -165 -181 -369 -396 -407 -430 -22 -19 -111 -98 -199
-176 -205 -180 -480 -449 -603 -590 -120 -137 -132 -148 -267 -266 -109 -95
-226 -179 -305 -219 -31 -16 -45 -18 -55 -10 -19 16 -45 97 -45 140 0 20 -7
61 -15 92 -8 30 -24 103 -35 162 -12 59 -62 267 -112 464 -49 196 -94 375 -98
397 -5 22 -25 88 -44 147 -22 68 -37 139 -41 195 -4 48 -16 122 -27 163 -23
88 -37 229 -45 428 -5 158 7 275 38 367 12 33 24 74 29 90 38 146 59 203 107
297 30 60 79 142 108 183 30 41 70 103 90 137 52 91 115 189 150 233 130 163
267 304 348 358 23 16 51 37 63 48 28 26 187 94 254 108 142 31 372 39 557 21z
m1418 -2744 c251 -27 307 -41 430 -109 134 -74 186 -110 251 -173 101 -99 166
-207 198 -329 25 -93 41 -300 41 -515 -1 -186 -2 -199 -30 -287 -15 -51 -32
-93 -37 -93 -4 0 -8 -11 -8 -24 0 -14 -10 -32 -22 -40 -12 -9 -19 -19 -15 -22
4 -4 -4 -22 -18 -40 -14 -18 -25 -36 -25 -40 0 -13 -109 -135 -162 -180 -87
-75 -136 -105 -186 -114 -26 -4 -83 -18 -127 -29 -44 -12 -107 -26 -140 -30
-65 -10 -156 -25 -250 -42 -69 -13 -282 -28 -399 -29 l-79 0 -61 58 c-132 124
-168 154 -281 242 -18 14 -59 45 -91 70 -66 51 -177 120 -373 230 -66 38 -140
86 -271 179 -25 18 -68 47 -97 66 -28 19 -54 39 -58 45 -6 10 240 260 310 315
22 17 83 75 135 129 52 54 140 137 194 184 191 166 212 186 368 338 139 136
166 157 230 185 153 66 315 82 573 55z m-4621 -206 c22 -10 43 -17 48 -14 4 3
11 -1 14 -10 4 -10 12 -12 27 -7 14 5 37 3 62 -6 22 -8 81 -25 130 -39 50 -13
124 -38 165 -53 41 -16 104 -38 140 -49 36 -11 79 -25 95 -31 17 -5 78 -26
137 -46 134 -45 238 -96 393 -194 28 -17 68 -40 90 -51 22 -11 58 -31 80 -43
l40 -24 37 -145 c24 -95 41 -191 48 -274 17 -200 82 -508 121 -570 32 -52 98
-86 178 -92 80 -5 125 7 184 51 23 18 55 39 71 47 16 8 63 43 105 77 159 131
274 214 288 209 13 -5 183 -116 387 -252 99 -66 239 -156 271 -174 169 -97
214 -125 240 -149 17 -16 85 -70 153 -121 67 -50 152 -122 190 -159 144 -144
388 -404 434 -464 139 -180 568 -793 568 -813 0 -7 38 -61 86 -122 96 -123
212 -316 327 -542 35 -69 76 -147 90 -175 50 -95 189 -380 219 -450 32 -76 63
-141 157 -338 33 -71 61 -131 61 -134 0 -12 64 -150 80 -173 10 -14 23 -45 30
-70 7 -24 30 -78 52 -120 21 -41 50 -102 64 -135 34 -80 63 -145 78 -175 8
-14 23 -52 34 -85 11 -33 41 -105 65 -160 25 -55 49 -116 55 -135 6 -19 22
-66 37 -105 14 -38 33 -92 42 -120 8 -27 46 -147 83 -265 261 -826 301 -963
345 -1170 52 -245 67 -429 68 -825 0 -309 -15 -487 -65 -745 -34 -177 -35
-182 -48 -190 -10 -6 -103 -11 -470 -25 -52 -2 -162 -7 -245 -10 -396 -16
-3679 -23 -5490 -11 -952 7 -879 1 -889 70 -35 244 -37 289 -47 966 -6 382
-11 1721 -13 2975 -2 1254 -6 2287 -9 2295 -14 35 -30 412 -32 750 -2 560 -15
1605 -20 1695 -2 44 -6 157 -8 251 l-4 171 71 18 c136 34 246 98 359 206 65
61 114 143 152 252 19 53 31 57 89 27z"/>
<path d="M33915 15010 c-128 -16 -259 -103 -329 -219 -72 -118 -101 -276 -70
-386 9 -33 20 -77 25 -99 27 -112 124 -238 219 -284 62 -29 225 -55 270 -42
19 6 49 10 67 10 17 0 38 7 47 15 8 8 19 15 25 15 6 0 19 4 29 9 9 5 35 17 57
27 48 23 129 104 158 159 30 58 38 106 40 230 2 130 -19 241 -61 312 -85 150
-96 162 -179 206 -99 51 -170 63 -298 47z"/>
<path d="M1705 15930 c-22 -4 -45 -6 -51 -3 -19 7 -164 -16 -198 -32 -17 -8
-56 -21 -86 -29 -30 -8 -80 -24 -110 -35 -30 -12 -60 -21 -67 -21 -7 0 -46
-16 -88 -36 -95 -45 -177 -120 -231 -210 -46 -79 -144 -302 -144 -329 0 -10
-9 -48 -20 -85 -25 -85 -60 -341 -60 -445 0 -44 -9 -147 -20 -230 -11 -82 -20
-177 -20 -210 0 -107 41 -494 65 -610 32 -156 57 -258 65 -273 5 -10 17 -35
27 -57 9 -22 25 -48 35 -59 9 -10 20 -32 23 -47 4 -16 11 -29 17 -29 6 0 8 -6
5 -14 -3 -8 2 -22 12 -32 9 -11 25 -37 35 -59 10 -22 31 -67 47 -101 16 -33
29 -65 29 -70 0 -5 9 -16 19 -24 11 -7 18 -17 15 -22 -3 -4 0 -8 6 -8 6 0 15
-10 20 -22 6 -13 19 -36 30 -53 11 -16 24 -40 29 -51 5 -12 13 -23 18 -25 10
-5 44 -54 63 -94 8 -16 17 -32 20 -35 16 -16 29 -52 23 -66 -4 -12 -3 -15 5
-10 8 4 12 0 12 -11 0 -10 7 -27 15 -37 8 -11 15 -29 15 -41 0 -12 9 -31 21
-43 11 -13 23 -39 26 -60 4 -20 14 -45 24 -56 12 -13 17 -28 13 -45 -4 -20 -3
-23 5 -11 9 12 11 10 11 -12 0 -16 4 -28 10 -28 5 0 7 -8 3 -17 -3 -10 -3 -15
2 -11 10 10 30 -29 39 -75 4 -21 11 -37 16 -37 6 0 10 -11 10 -25 0 -14 5 -25
10 -25 6 0 8 -11 4 -25 -4 -15 -2 -25 5 -25 6 0 11 -9 11 -19 0 -11 5 -21 11
-23 6 -2 13 -51 16 -120 3 -65 10 -115 14 -112 5 3 9 -67 9 -155 0 -106 -4
-161 -10 -161 -6 0 -11 -19 -10 -42 0 -68 -12 -168 -21 -174 -5 -3 -9 -39 -9
-80 0 -54 -3 -73 -11 -68 -9 5 -10 -9 -7 -50 3 -31 1 -59 -4 -62 -4 -3 -8 -21
-8 -40 0 -19 -5 -34 -11 -34 -7 0 -9 -12 -7 -30 3 -17 1 -33 -4 -36 -4 -3 -8
-21 -8 -40 0 -19 -4 -34 -10 -34 -5 0 -10 -20 -10 -44 0 -24 -4 -46 -10 -48
-5 -2 -12 -36 -16 -75 -4 -40 -10 -73 -14 -73 -5 0 -11 -27 -15 -60 -4 -33
-11 -60 -16 -60 -5 0 -9 -18 -9 -41 0 -25 -4 -38 -10 -34 -6 4 -11 -5 -11 -22
0 -68 -12 -153 -20 -153 -6 0 -10 -19 -10 -42 1 -64 -10 -142 -20 -153 -5 -5
-9 -26 -9 -48 0 -26 -4 -36 -12 -31 -8 5 -9 -3 -5 -29 3 -20 1 -39 -4 -42 -5
-4 -9 -28 -9 -56 0 -27 -4 -49 -9 -49 -6 0 -13 -31 -17 -70 -3 -38 -11 -70
-15 -70 -5 0 -9 -27 -9 -60 0 -37 -4 -60 -11 -60 -7 0 -9 -12 -7 -30 3 -17 1
-33 -4 -36 -4 -3 -8 -23 -8 -45 0 -21 -4 -39 -9 -39 -5 0 -12 -30 -16 -67 -4
-38 -11 -72 -15 -78 -25 -31 -70 -540 -71 -795 0 -80 -7 -195 -15 -256 -17
-129 -15 -531 5 -704 6 -58 15 -152 20 -210 7 -84 18 -133 56 -245 49 -146 73
-190 158 -287 53 -61 159 -138 189 -138 10 0 18 -4 18 -9 0 -21 237 -79 435
-106 329 -47 340 -47 639 -42 249 4 302 8 366 25 89 24 146 48 170 72 3 3 31
19 62 35 98 53 211 149 261 223 78 118 105 188 132 352 7 47 21 126 31 175 14
78 16 137 11 440 -4 193 -11 386 -16 430 -5 44 -12 107 -15 140 -10 124 -27
294 -42 420 -33 291 -52 910 -35 1159 21 315 26 338 84 380 39 28 114 34 507
34 344 1 478 -4 495 -18 6 -5 34 -10 63 -11 29 -2 52 -6 52 -10 0 -3 18 -9 40
-13 22 -3 40 -11 40 -16 0 -6 7 -10 15 -10 9 0 18 -7 21 -15 4 -8 10 -15 16
-15 5 0 16 -6 24 -14 7 -8 25 -23 38 -34 22 -17 76 -129 76 -158 0 -7 13 -41
28 -76 27 -60 48 -133 91 -318 39 -163 46 -618 12 -754 -5 -22 -7 -44 -5 -48
3 -5 1 -48 -5 -96 -6 -48 -13 -109 -16 -137 -6 -54 -7 -69 -25 -193 -6 -45 -9
-86 -6 -90 3 -5 -2 -58 -10 -118 -8 -60 -20 -143 -25 -184 -6 -41 -11 -92 -11
-113 0 -20 -4 -37 -9 -37 -5 0 -9 -25 -9 -55 0 -30 -4 -55 -8 -55 -5 0 -9
-117 -9 -260 0 -146 3 -260 8 -260 5 0 9 -18 9 -40 0 -22 4 -40 8 -40 5 0 7
-14 4 -30 -3 -18 0 -30 7 -30 6 0 11 -16 11 -35 0 -19 4 -35 9 -35 11 0 57
-90 65 -128 4 -16 17 -35 30 -42 13 -7 30 -24 37 -39 14 -27 44 -61 54 -61 4
0 13 -6 20 -12 34 -31 45 -38 69 -44 14 -3 26 -10 26 -15 0 -5 9 -9 21 -9 11
0 18 -4 15 -9 -4 -5 12 -12 34 -16 22 -4 40 -10 40 -15 0 -8 48 -25 63 -22 4
1 7 -2 7 -8 0 -5 7 -10 15 -10 8 0 15 -4 15 -10 0 -5 18 -13 40 -16 22 -4 40
-10 40 -14 0 -4 18 -10 40 -14 22 -3 40 -11 40 -16 0 -6 18 -10 41 -10 24 0
38 -4 34 -10 -3 -6 0 -10 7 -10 55 -1 154 -14 156 -21 5 -13 202 -11 202 1 0
6 28 10 64 10 36 0 67 4 70 8 3 5 19 7 36 4 18 -2 30 0 30 7 0 6 16 11 35 11
19 0 35 5 35 10 0 6 9 10 19 10 11 0 22 4 26 10 3 5 12 7 20 3 8 -3 15 -1 15
5 0 6 18 13 40 17 22 4 40 11 40 16 0 5 11 9 25 9 14 0 25 4 25 10 0 5 18 13
40 16 22 4 40 10 40 14 0 5 14 11 30 15 17 4 30 11 30 16 0 5 5 9 11 9 25 0
103 77 146 143 42 66 91 176 98 222 2 11 6 29 8 40 3 11 10 63 17 115 6 52 19
115 28 140 15 40 17 104 16 535 0 316 -4 536 -12 620 -23 231 -42 389 -57 455
-8 36 -21 99 -30 140 -9 41 -20 86 -24 100 -18 53 -30 108 -42 185 -6 44 -15
84 -19 88 -4 5 -5 29 -2 54 3 33 2 44 -7 39 -8 -5 -11 10 -11 53 0 33 -4 62
-9 65 -12 8 -24 100 -21 164 1 31 -3 52 -9 52 -6 0 -11 20 -11 46 0 27 4 43
10 39 6 -3 10 1 10 9 0 9 -4 16 -10 16 -5 0 -10 21 -10 46 0 27 4 43 10 39 6
-4 10 10 10 34 0 23 -4 41 -10 41 -6 0 -10 123 -10 350 0 238 3 350 11 350 6
0 10 22 10 53 0 28 5 97 10 152 6 55 13 243 15 418 3 219 8 316 15 311 8 -4
10 30 8 107 -3 141 11 340 23 333 5 -3 9 9 9 28 -1 59 11 143 20 153 5 5 9 31
9 58 0 32 4 46 11 41 8 -4 10 12 8 54 -2 33 -1 64 4 68 4 4 7 31 7 61 0 29 4
53 9 53 11 0 24 89 23 157 -1 29 3 55 8 58 6 3 10 35 10 71 0 44 3 63 11 58 7
-4 10 18 10 72 -2 117 10 254 21 254 5 0 9 26 9 58 -1 31 3 134 8 227 17 318
13 609 -9 770 -12 80 -25 156 -29 168 -5 12 -12 50 -16 85 -4 34 -10 62 -15
62 -9 0 -23 57 -21 83 1 9 -3 17 -8 17 -6 0 -11 7 -11 15 0 8 -5 15 -11 15 -7
0 -9 10 -5 26 5 17 3 23 -4 19 -6 -3 -10 3 -10 14 0 12 -4 21 -10 21 -5 0 -10
8 -10 18 -1 9 -9 35 -20 57 -11 22 -19 48 -20 58 0 9 -4 17 -8 17 -5 0 -15 18
-22 41 -8 23 -20 43 -27 46 -7 3 -13 11 -13 19 0 8 -4 14 -10 14 -5 0 -10 9
-10 20 0 11 -7 23 -15 26 -8 3 -17 16 -21 27 -4 12 -22 35 -40 51 -19 16 -34
33 -34 39 0 15 -51 67 -65 67 -7 0 -23 12 -37 28 -39 43 -73 69 -114 88 -22
10 -42 22 -45 27 -4 5 -12 6 -18 3 -6 -4 -11 -2 -11 3 0 6 -7 11 -15 11 -8 0
-15 4 -15 9 0 8 -75 26 -92 22 -5 0 -8 4 -8 9 0 6 -11 10 -25 10 -14 0 -25 5
-25 11 0 7 -15 10 -40 7 -22 -2 -40 0 -40 4 0 5 -49 8 -110 8 -60 0 -110 -3
-110 -7 0 -5 -22 -6 -50 -5 -32 3 -50 0 -50 -7 0 -6 -19 -11 -45 -11 -25 0
-45 -4 -45 -9 0 -4 -31 -12 -70 -15 -38 -4 -70 -11 -70 -17 0 -5 -7 -9 -15 -9
-8 0 -15 -4 -15 -10 0 -5 -7 -7 -15 -4 -8 4 -15 1 -15 -5 0 -6 -6 -11 -14 -11
-8 0 -21 -9 -29 -20 -8 -11 -16 -17 -20 -14 -3 3 -18 -6 -34 -20 -15 -14 -31
-26 -35 -26 -9 0 -128 -122 -128 -132 0 -4 -3 -8 -7 -8 -11 0 -43 -58 -43 -76
0 -9 -4 -13 -8 -10 -5 3 -14 -18 -21 -45 -7 -28 -19 -53 -25 -55 -7 -3 -13
-10 -14 -17 -6 -47 -16 -76 -24 -71 -5 4 -9 -4 -7 -17 1 -13 -1 -33 -6 -44
-47 -124 -74 -222 -131 -470 -20 -86 -24 -130 -31 -310 -7 -208 -7 -212 2
-330 4 -55 7 -109 7 -120 0 -45 30 -326 43 -400 8 -44 17 -111 20 -150 4 -38
12 -99 19 -135 21 -110 9 -936 -15 -1016 -16 -53 -126 -154 -168 -154 -12 0
-21 -4 -21 -10 0 -5 -18 -13 -40 -16 -22 -4 -40 -10 -40 -15 0 -5 -7 -9 -15
-9 -8 0 -15 -4 -15 -9 0 -4 -37 -11 -82 -14 -46 -4 -84 -11 -86 -17 -5 -14
-272 -14 -272 1 0 6 -28 10 -72 9 -89 0 -177 10 -184 21 -3 5 -21 9 -40 9 -20
0 -34 5 -34 13 0 8 -4 7 -10 -3 -6 -9 -10 -10 -10 -3 0 6 -20 15 -45 19 -25 3
-48 10 -51 15 -3 5 -17 9 -31 9 -25 0 -85 28 -91 43 -2 4 -9 7 -16 7 -7 0 -23
11 -36 25 -13 14 -25 23 -28 21 -2 -2 -20 11 -40 30 -20 19 -39 34 -43 34 -4
0 -21 12 -39 26 -20 17 -29 32 -25 44 3 9 -4 81 -15 160 -34 238 -25 917 14
1076 8 33 22 183 31 334 8 151 18 289 21 305 25 134 19 560 -10 675 -8 30 -17
73 -20 95 -4 22 -25 92 -47 155 -22 63 -54 158 -70 210 -17 52 -37 109 -44
125 -7 17 -25 59 -40 95 -27 63 -159 251 -240 339 -89 97 -284 230 -384 261
-47 15 -155 58 -186 73 -16 9 -59 21 -95 27 -73 13 -583 21 -645 10z m705
-408 c176 -71 212 -94 321 -202 163 -162 203 -229 278 -460 78 -244 89 -304
92 -520 3 -235 -14 -557 -51 -960 -49 -544 -59 -801 -39 -1113 10 -169 22
-238 59 -347 46 -137 83 -195 167 -262 107 -86 142 -108 267 -170 178 -90 336
-129 672 -168 113 -13 401 -13 457 -1 192 43 243 59 323 97 95 45 227 136 302
208 86 81 117 185 144 488 9 109 9 178 -1 350 -8 117 -17 344 -21 503 -4 160
-13 326 -21 370 -18 111 -20 1013 -1 1135 17 116 30 173 57 257 52 157 184
304 345 382 58 28 74 31 157 31 89 0 205 -20 247 -42 42 -22 158 -132 218
-207 129 -161 256 -492 299 -781 27 -180 11 -619 -31 -885 -12 -71 -25 -175
-31 -230 -9 -103 -32 -271 -49 -360 -15 -79 -28 -189 -40 -330 -6 -71 -17
-173 -25 -225 -22 -146 -35 -369 -45 -775 -9 -361 -21 -551 -40 -648 -13 -63
-13 -940 0 -1207 14 -289 26 -395 65 -560 53 -231 112 -516 129 -630 22 -146
40 -543 33 -735 -8 -237 -75 -569 -133 -659 -60 -92 -90 -113 -253 -174 -95
-35 -98 -36 -251 -36 -131 -1 -170 3 -250 23 -116 29 -183 57 -260 112 -52 36
-65 52 -96 118 -20 42 -45 110 -56 151 -24 95 -34 297 -20 410 42 324 51 406
57 490 4 52 13 127 21 165 8 39 26 162 40 275 25 195 26 220 20 513 -9 427
-30 582 -117 862 -28 88 -55 176 -61 195 -6 19 -38 88 -70 153 -57 113 -62
119 -140 180 -127 99 -139 105 -223 128 -87 24 -225 33 -680 45 -295 8 -548
-7 -703 -41 -114 -26 -245 -85 -274 -125 -28 -39 -88 -217 -88 -261 0 -22 -7
-72 -15 -112 -17 -87 -33 -259 -45 -504 -5 -100 -14 -244 -21 -320 -9 -106 -9
-158 0 -217 6 -42 11 -101 11 -131 0 -30 9 -94 20 -142 12 -48 30 -151 40
-228 11 -77 28 -196 39 -265 39 -253 54 -422 55 -655 1 -236 -6 -302 -44 -435
-52 -176 -258 -388 -426 -438 -51 -15 -105 -17 -414 -16 -309 0 -364 3 -420
18 -36 10 -82 22 -102 26 -122 24 -216 88 -274 185 -28 49 -117 315 -138 417
-9 40 -21 163 -28 273 -10 177 -9 215 5 320 10 66 17 150 17 186 0 36 4 90 10
120 9 50 18 145 40 394 8 93 14 151 41 410 6 55 17 127 24 160 7 33 18 107 25
165 31 290 41 361 81 560 8 42 19 104 39 230 5 30 16 82 24 115 29 117 67 291
81 365 8 41 23 111 35 155 11 44 29 150 40 235 11 85 29 200 40 255 12 55 26
123 31 150 6 28 13 111 16 185 4 118 2 151 -20 261 -14 69 -41 164 -60 210
-19 46 -44 116 -57 154 -12 39 -30 88 -40 110 -10 22 -27 65 -39 95 -28 69
-55 123 -118 230 -27 47 -72 134 -99 195 -27 60 -100 212 -162 338 -117 236
-244 554 -261 656 -45 264 -49 305 -67 714 -6 129 7 319 27 419 34 168 54 241
84 313 18 44 40 96 48 116 9 22 40 57 76 87 54 45 78 56 214 101 189 62 267
70 612 67 l250 -3 125 -51z"/>
<path d="M21190 15362 c0 -10 -53 -28 -107 -37 -23 -4 -47 -13 -54 -21 -6 -8
-18 -14 -25 -14 -8 0 -14 -4 -14 -9 0 -5 -13 -12 -30 -16 -16 -4 -30 -10 -30
-13 0 -4 -19 -16 -43 -27 -23 -11 -53 -31 -67 -45 -14 -14 -30 -27 -35 -28
-21 -7 -65 -47 -65 -59 0 -7 -11 -25 -25 -40 -14 -15 -28 -32 -33 -38 -11 -14
-25 -48 -24 -57 1 -5 -2 -8 -8 -8 -5 0 -10 -7 -10 -16 0 -8 -4 -12 -10 -9 -5
3 -10 -3 -10 -14 0 -11 -4 -22 -10 -26 -5 -3 -7 -12 -3 -20 3 -8 1 -15 -4 -15
-10 0 -37 -64 -39 -94 -1 -10 -6 -21 -11 -25 -6 -3 -14 -31 -18 -61 -4 -30
-11 -60 -16 -66 -5 -7 -10 -25 -10 -40 0 -62 -11 -144 -20 -144 -12 0 -12
-403 0 -415 10 -11 22 -125 21 -203 -1 -30 3 -59 8 -65 11 -13 22 -93 22 -149
0 -21 4 -38 10 -38 5 0 10 -15 10 -33 0 -18 5 -38 11 -44 5 -5 12 -32 15 -59
2 -26 9 -51 15 -55 8 -4 7 -8 -2 -11 -11 -4 -10 -13 6 -43 11 -21 18 -50 17
-66 -2 -16 1 -29 7 -29 6 0 11 -16 11 -35 0 -19 4 -35 9 -35 5 0 13 -29 16
-65 4 -36 11 -65 16 -65 5 0 9 -15 9 -34 0 -19 5 -38 11 -42 6 -3 9 -19 5 -35
-3 -16 -1 -29 4 -29 6 0 10 -9 10 -20 0 -11 4 -28 9 -38 16 -31 33 -93 27 -99
-3 -3 1 -15 9 -27 8 -11 15 -28 15 -38 0 -10 5 -18 10 -18 6 0 10 -18 10 -40
0 -22 5 -40 10 -40 6 0 10 -9 10 -19 0 -11 4 -23 10 -26 5 -3 7 -19 3 -35 -3
-19 -1 -30 6 -30 6 0 11 -11 11 -24 0 -14 5 -28 10 -31 6 -4 8 -21 4 -42 -5
-26 -4 -34 5 -29 10 7 16 -6 12 -28 -1 -4 6 -29 16 -55 10 -25 16 -53 15 -62
-2 -9 4 -19 13 -22 8 -4 15 -16 15 -27 0 -11 5 -20 10 -20 6 0 10 -9 10 -19 0
-11 5 -23 11 -26 6 -4 8 -14 5 -22 -3 -8 -1 -11 4 -8 6 3 10 -3 10 -14 0 -12
5 -21 10 -21 6 0 10 -11 10 -24 0 -14 5 -28 10 -31 6 -3 10 -17 10 -30 0 -13
4 -26 9 -29 5 -3 7 -15 4 -26 -3 -11 0 -20 6 -20 6 0 11 -9 11 -19 0 -11 5
-23 11 -27 6 -3 9 -14 6 -23 -2 -10 2 -26 9 -36 8 -10 14 -29 14 -42 0 -13 5
-23 10 -23 6 0 10 -9 10 -19 0 -11 4 -22 9 -25 4 -3 6 -16 4 -30 -3 -13 0 -27
6 -30 6 -4 11 -18 11 -32 0 -13 5 -24 10 -24 6 0 10 -9 10 -20 0 -11 4 -20 9
-20 9 0 22 -49 23 -87 0 -13 4 -23 8 -23 4 0 10 -27 14 -60 4 -33 11 -60 16
-60 6 0 10 -6 10 -14 0 -16 31 -79 41 -84 4 -2 5 -12 2 -22 -3 -11 0 -20 6
-20 6 0 11 -13 11 -30 0 -16 5 -30 10 -30 6 0 10 -14 10 -31 0 -16 4 -28 9
-25 10 6 22 -50 22 -101 0 -18 4 -33 8 -33 5 0 11 -23 14 -51 4 -29 13 -59 22
-69 8 -9 12 -19 9 -22 -3 -4 0 -17 7 -30 7 -12 14 -30 15 -38 1 -8 5 -30 8
-49 3 -19 10 -39 16 -45 5 -5 10 -25 10 -43 0 -18 5 -33 10 -33 6 0 10 -12 10
-26 0 -14 4 -23 10 -19 6 4 10 -6 10 -24 0 -16 5 -33 10 -36 6 -3 7 -17 4 -31
-4 -14 -2 -24 5 -24 6 0 11 -10 11 -23 0 -13 12 -52 26 -88 14 -35 28 -82 30
-104 3 -22 12 -47 20 -56 8 -8 14 -21 14 -29 0 -7 8 -20 19 -29 10 -9 22 -35
26 -59 4 -23 11 -40 16 -36 5 3 9 -11 9 -30 0 -20 5 -36 11 -36 7 0 9 -9 5
-24 -4 -16 -1 -26 9 -30 8 -3 12 -11 9 -19 -3 -8 2 -20 10 -27 9 -7 13 -16 10
-21 -2 -5 3 -20 12 -34 9 -14 12 -25 7 -25 -6 0 11 -44 38 -97 27 -54 49 -108
49 -120 0 -13 4 -23 9 -23 5 0 12 -21 16 -47 4 -27 11 -51 16 -54 5 -3 12 -23
16 -45 3 -21 11 -42 17 -46 6 -4 11 -15 11 -25 1 -26 28 -113 35 -113 3 0 4
-16 2 -35 -3 -21 0 -35 7 -35 6 0 11 -12 11 -27 0 -31 21 -93 31 -93 4 0 10
-19 14 -42 3 -24 10 -52 15 -63 5 -11 18 -40 29 -65 10 -25 31 -71 45 -103 14
-33 31 -78 37 -100 6 -23 25 -85 44 -137 18 -52 42 -124 53 -160 12 -36 30
-90 41 -120 12 -30 21 -61 21 -68 0 -8 6 -28 14 -45 20 -45 56 -154 56 -170 0
-8 11 -52 25 -98 56 -186 74 -248 95 -329 12 -47 28 -101 36 -120 7 -19 16
-59 20 -89 3 -30 9 -62 13 -70 5 -9 14 -45 20 -80 7 -35 18 -78 26 -95 7 -17
21 -51 30 -76 17 -44 65 -148 129 -278 46 -96 156 -208 250 -256 68 -35 87
-40 183 -48 60 -5 133 -10 163 -13 30 -2 134 -7 231 -11 194 -7 250 2 339 54
25 14 61 34 80 44 39 20 72 40 80 48 3 3 31 25 63 49 86 66 137 129 297 371
49 74 97 146 107 159 22 29 26 34 146 223 99 154 190 329 266 513 59 141 98
220 116 235 8 7 15 19 15 26 0 8 5 14 10 14 6 0 10 9 10 20 0 11 4 20 8 20 5
0 16 26 26 58 19 60 55 132 67 132 3 0 9 19 12 42 3 24 11 44 16 46 6 2 11 12
11 23 0 10 4 19 9 19 6 0 13 20 17 45 3 25 10 42 15 39 5 -3 9 7 9 21 0 15 7
33 15 41 8 8 12 21 9 29 -4 8 1 18 10 21 10 4 16 18 16 41 0 24 35 105 111
261 60 125 114 234 119 244 5 9 12 39 16 67 4 28 10 51 15 51 5 0 9 11 9 24 0
13 4 26 9 28 5 2 11 12 13 23 1 11 9 25 16 30 7 6 14 27 15 46 1 20 7 43 14
50 6 8 14 33 18 57 4 23 11 42 16 42 5 0 9 9 9 21 0 11 7 27 15 35 8 9 15 26
15 40 0 13 5 24 10 24 6 0 10 7 10 16 0 19 64 148 91 182 10 14 19 33 19 43 0
11 4 19 10 19 5 0 13 18 16 40 4 22 10 40 15 40 5 0 9 7 9 17 0 22 50 123 61
123 5 0 9 7 9 15 0 7 6 18 13 22 8 4 17 26 20 47 4 22 11 43 18 46 6 4 8 17 5
28 -4 11 -2 23 4 27 5 3 10 15 10 26 0 10 5 19 10 19 6 0 10 12 10 26 0 14 4
23 10 19 6 -3 10 4 10 17 0 36 11 68 21 62 5 -3 9 4 9 15 0 11 5 23 10 26 6 3
10 17 10 30 0 13 6 30 13 37 8 7 12 19 9 26 -2 6 1 12 7 12 6 0 11 11 11 25 0
14 5 25 10 25 6 0 10 9 10 19 0 11 5 23 10 26 6 3 7 17 4 30 -3 12 -1 26 5 29
6 4 11 18 11 32 0 13 5 24 10 24 6 0 10 9 10 21 0 22 29 81 43 87 4 2 7 10 7
17 0 7 7 15 15 19 9 3 15 18 15 40 0 19 5 38 10 41 6 3 10 13 10 21 0 8 9 23
20 34 11 11 20 33 20 50 0 17 5 30 11 30 7 0 9 10 7 25 -3 14 -1 28 3 31 5 3
9 14 9 25 0 10 5 19 10 19 6 0 10 7 10 15 0 8 5 15 10 15 6 0 10 10 10 23 0
13 5 28 12 35 7 7 9 12 4 12 -4 0 0 7 8 16 9 8 16 26 16 39 0 13 5 27 10 30 6
3 10 15 10 26 0 10 5 19 11 19 7 0 9 10 5 25 -4 14 -2 25 4 25 5 0 10 12 10
26 0 14 4 23 10 19 6 -4 10 7 10 27 0 18 7 46 15 62 8 15 15 37 15 47 0 11 5
19 10 19 6 0 10 14 10 30 0 17 4 30 9 30 4 0 11 31 15 69 4 38 12 71 17 73 9
3 15 22 18 51 1 5 6 5 13 1 8 -5 9 2 5 24 -4 19 -2 32 3 32 6 0 10 9 10 19 0
11 4 22 9 25 4 3 11 28 15 56 4 27 11 50 16 50 6 0 10 9 10 21 0 11 5 17 10
14 6 -4 10 6 10 24 0 16 5 33 11 37 6 3 9 17 6 30 -2 13 0 25 5 26 5 2 11 22
12 44 2 22 8 50 15 62 6 11 11 32 11 46 0 14 5 26 11 26 7 0 9 10 5 24 -3 14
-1 28 5 31 6 4 8 17 5 30 -4 14 0 27 8 34 8 7 18 41 21 77 4 35 11 64 16 64 5
0 9 18 9 41 0 25 4 38 11 34 6 -4 10 9 10 37 0 76 11 158 20 152 5 -3 9 21 9
55 0 34 5 61 11 63 6 2 12 30 14 61 2 32 8 64 14 71 6 7 16 85 21 172 6 87 12
186 14 219 3 33 9 61 15 63 15 5 15 219 0 224 -7 2 -13 34 -15 78 -3 91 -13
158 -25 165 -5 3 -6 26 -2 50 3 29 2 45 -5 45 -5 0 -13 23 -17 50 -4 28 -11
50 -16 50 -5 0 -9 18 -9 40 0 22 -4 40 -10 40 -5 0 -12 17 -16 38 -4 20 -11
39 -15 42 -5 3 -10 15 -13 25 -7 39 -31 85 -42 85 -6 0 -19 16 -28 35 -9 19
-21 35 -26 35 -6 0 -10 7 -10 15 0 8 -4 15 -10 15 -5 0 -10 6 -10 13 0 7 -11
21 -25 31 -14 10 -25 27 -25 37 0 10 -9 21 -21 24 -12 4 -32 17 -46 29 -13 11
-29 21 -34 21 -5 0 -13 5 -17 10 -11 16 -97 55 -121 55 -11 0 -21 5 -21 10 0
6 -11 10 -24 10 -13 0 -26 5 -28 11 -2 6 -51 13 -120 16 -65 3 -115 10 -112
14 3 5 -20 9 -50 9 -31 0 -56 -4 -56 -9 0 -4 -37 -11 -82 -14 -46 -4 -84 -11
-86 -17 -2 -5 -19 -10 -38 -10 -19 0 -34 -4 -34 -9 0 -6 -20 -13 -45 -17 -25
-3 -45 -10 -45 -15 0 -4 -16 -11 -35 -15 -19 -3 -35 -9 -35 -13 0 -4 -18 -15
-40 -25 -22 -10 -40 -22 -40 -27 0 -5 -6 -9 -13 -9 -8 0 -27 -11 -43 -25 -16
-14 -38 -28 -49 -31 -10 -4 -25 -12 -32 -18 -35 -31 -48 -41 -54 -41 -4 0 -21
-16 -38 -35 -17 -19 -31 -32 -31 -27 0 15 -200 -197 -200 -213 0 -6 -4 -10 -9
-10 -5 0 -14 -13 -21 -30 -7 -16 -26 -45 -44 -64 -17 -19 -42 -49 -56 -67 -14
-18 -33 -40 -42 -51 -10 -10 -18 -25 -18 -34 0 -9 -9 -27 -20 -41 -11 -14 -20
-32 -20 -39 0 -8 -3 -14 -7 -14 -5 0 -17 -19 -28 -43 -11 -23 -22 -44 -25 -47
-9 -8 -40 -77 -40 -89 0 -6 -4 -11 -9 -11 -5 0 -12 -11 -15 -25 -4 -14 -11
-25 -16 -25 -6 0 -10 -8 -10 -19 0 -10 -11 -34 -24 -54 -13 -19 -27 -49 -31
-66 -4 -17 -10 -31 -15 -31 -4 0 -11 -20 -15 -45 -3 -25 -10 -43 -16 -40 -5 4
-9 -3 -9 -14 0 -12 -4 -21 -10 -21 -5 0 -10 -13 -10 -29 0 -16 -7 -34 -15 -41
-7 -6 -17 -32 -21 -56 -3 -24 -10 -44 -15 -44 -5 0 -9 -11 -9 -25 0 -14 -5
-25 -11 -25 -7 0 -9 -10 -5 -25 4 -14 2 -25 -4 -25 -5 0 -10 -13 -10 -30 0
-16 -4 -30 -10 -30 -5 0 -10 -12 -10 -26 0 -14 -4 -23 -9 -20 -5 3 -12 -19
-16 -49 -3 -30 -10 -55 -13 -55 -4 0 -13 -21 -20 -47 -16 -65 -18 -72 -36
-122 -9 -24 -14 -52 -11 -62 3 -9 -2 -24 -11 -33 -11 -12 -14 -26 -10 -46 3
-16 1 -32 -4 -35 -6 -3 -10 -17 -10 -31 0 -13 -5 -24 -11 -24 -6 0 -9 -9 -6
-19 3 -11 -2 -29 -10 -41 -9 -12 -12 -31 -9 -45 3 -13 2 -27 -4 -30 -5 -3 -10
-26 -10 -51 0 -28 -4 -43 -10 -39 -6 4 -10 -8 -10 -30 0 -20 -7 -49 -15 -65
-8 -16 -14 -39 -13 -52 1 -13 -3 -39 -9 -58 -6 -19 -12 -42 -12 -50 -4 -54
-15 -100 -23 -100 -7 0 -9 -16 -5 -40 3 -22 1 -43 -4 -46 -5 -3 -9 -25 -9 -50
0 -24 -4 -44 -10 -44 -5 0 -10 -18 -10 -40 0 -23 -5 -40 -11 -40 -7 0 -9 -11
-5 -30 3 -17 1 -30 -4 -30 -6 0 -10 -24 -10 -52 0 -38 -3 -49 -10 -38 -7 11
-10 -2 -10 -42 0 -37 -4 -58 -11 -58 -8 0 -10 -12 -6 -35 3 -19 2 -35 -4 -35
-5 0 -9 -11 -9 -25 0 -14 -4 -25 -10 -25 -5 0 -10 -15 -9 -32 1 -36 -8 -82
-21 -113 -5 -11 -12 -46 -15 -77 -4 -32 -11 -58 -17 -58 -6 0 -8 -13 -6 -31 3
-20 0 -33 -8 -36 -8 -3 -16 -30 -20 -64 -4 -32 -10 -56 -15 -53 -5 3 -9 -18
-9 -45 0 -28 -4 -51 -10 -51 -5 0 -10 -15 -10 -32 0 -44 -10 -79 -20 -73 -5 3
-8 -9 -8 -27 0 -49 -9 -108 -20 -121 -6 -7 -10 -23 -11 -37 -1 -45 -13 -100
-22 -100 -5 0 -9 -18 -9 -40 0 -23 -5 -40 -11 -40 -8 0 -10 -12 -6 -35 3 -19
1 -37 -4 -40 -5 -4 -9 -19 -9 -36 0 -16 -4 -29 -10 -29 -5 0 -10 -18 -10 -41
0 -28 -4 -38 -11 -33 -9 5 -10 -1 -5 -20 4 -15 2 -26 -4 -26 -5 0 -10 -11 -10
-24 0 -14 -4 -28 -10 -31 -5 -3 -10 -16 -10 -28 0 -13 -7 -33 -16 -45 -9 -13
-14 -32 -11 -42 2 -10 -4 -31 -14 -47 -10 -15 -19 -38 -19 -50 0 -13 -5 -23
-11 -23 -7 0 -9 -10 -5 -25 4 -14 2 -25 -4 -25 -5 0 -10 -11 -10 -25 0 -14 -4
-25 -10 -25 -5 0 -10 -10 -10 -22 -1 -22 -1 -23 -15 -4 -8 11 -15 32 -15 48 0
15 -4 28 -10 28 -5 0 -10 9 -10 20 0 11 -5 20 -11 20 -7 0 -9 9 -5 24 4 16 1
26 -10 30 -10 4 -13 13 -9 25 3 11 1 29 -5 40 -5 12 -14 29 -19 40 -6 10 -7
28 -4 40 3 11 -2 32 -11 46 -9 13 -16 45 -16 70 0 25 -4 45 -10 45 -5 0 -10
22 -10 49 0 28 -5 53 -10 56 -6 4 -8 21 -4 40 4 25 2 39 -10 50 -10 11 -13 25
-9 45 3 19 1 30 -6 30 -6 0 -11 15 -11 34 0 19 -5 38 -10 41 -6 4 -8 21 -4 41
4 22 2 34 -5 34 -6 0 -11 12 -11 26 0 14 -4 34 -10 44 -5 10 -13 51 -16 92 -4
40 -13 83 -20 95 -8 12 -14 36 -14 53 0 16 -4 30 -10 30 -5 0 -10 18 -10 40 0
22 -4 40 -9 40 -6 0 -7 16 -4 37 4 24 3 34 -5 29 -13 -8 -29 39 -38 111 -4 29
-12 54 -20 57 -8 3 -11 12 -8 21 4 9 2 26 -4 38 -15 31 -26 79 -23 100 1 10
-2 24 -7 30 -5 7 -13 32 -17 56 -4 25 -14 51 -21 59 -8 7 -14 26 -14 42 0 15
-6 30 -14 33 -11 4 -13 17 -9 48 4 30 3 40 -5 35 -8 -5 -12 4 -12 28 0 19 -4
37 -9 40 -5 3 -7 25 -4 48 4 29 3 39 -5 34 -8 -5 -12 4 -12 28 0 19 -4 37 -9
41 -5 3 -13 34 -16 69 -4 39 -12 67 -21 70 -7 3 -13 13 -13 23 0 34 -8 83 -15
90 -3 3 -6 15 -6 25 0 10 -4 18 -8 18 -4 0 -6 15 -4 34 2 18 -1 37 -7 40 -6 4
-11 27 -11 52 0 28 -4 43 -10 39 -6 -4 -10 10 -10 34 0 22 -4 42 -9 45 -5 3
-6 27 -3 52 3 34 2 45 -7 40 -7 -5 -11 4 -11 28 0 20 -4 36 -9 36 -4 0 -11 32
-15 72 -4 40 -10 75 -15 78 -8 5 -17 36 -25 90 -7 39 -27 113 -37 132 -5 10
-9 34 -9 53 0 19 -4 35 -10 35 -5 0 -10 16 -10 35 0 19 -5 35 -11 35 -7 0 -9
9 -6 21 3 12 1 31 -5 43 -6 11 -15 29 -20 40 -5 10 -12 67 -15 127 -3 59 -9
106 -13 104 -8 -5 -12 11 -30 130 -6 39 -17 91 -25 116 -8 26 -15 56 -15 67 0
12 -4 24 -10 27 -5 3 -12 28 -16 55 -4 31 -12 50 -19 50 -8 0 -11 8 -8 20 3
11 -4 32 -17 49 -14 20 -19 38 -15 51 4 14 2 20 -7 18 -7 -2 -13 4 -14 12 0 8
-3 22 -7 30 -3 8 -8 28 -12 43 -3 16 -17 47 -32 69 -14 23 -28 59 -30 80 -3
21 -10 38 -14 38 -5 0 -9 7 -9 15 0 8 -4 15 -10 15 -5 0 -10 11 -10 25 0 14
-4 25 -9 25 -4 0 -18 35 -31 78 -13 42 -26 79 -29 82 -4 3 -22 29 -40 58 -18
28 -37 52 -42 52 -5 0 -9 8 -9 18 0 9 -14 28 -30 41 -17 13 -30 29 -30 36 0 7
-27 39 -60 71 -76 75 -87 84 -100 84 -6 0 -9 4 -6 9 4 5 -7 12 -24 16 -16 4
-38 16 -48 28 -18 22 -43 41 -72 54 -8 4 -21 13 -28 20 -7 7 -22 13 -33 13
-10 0 -19 5 -19 10 0 6 -9 10 -21 10 -11 0 -18 4 -15 9 5 7 -20 19 -41 19 -3
0 -9 5 -12 11 -4 5 -19 12 -35 15 -15 3 -34 10 -41 16 -7 6 -19 10 -27 9 -7
-1 -20 0 -28 3 -41 15 -101 28 -129 28 -17 0 -31 5 -31 10 0 6 -62 10 -165 10
-91 0 -165 -4 -165 -8z"/>
<path d="M16635 15339 c-49 -5 -129 -11 -177 -15 -49 -3 -88 -10 -88 -14 0 -9
-116 -19 -217 -19 -41 0 -73 -4 -73 -10 0 -5 -37 -11 -82 -14 -46 -2 -96 -7
-113 -10 -16 -3 -92 -9 -167 -13 -76 -4 -138 -11 -138 -15 0 -5 -20 -9 -43 -9
-24 0 -47 -3 -50 -6 -4 -4 -43 -6 -87 -5 -51 2 -80 -2 -80 -8 0 -7 -23 -11
-55 -11 -30 0 -55 -4 -55 -10 0 -5 -3 -9 -7 -8 -18 4 -173 -15 -173 -21 0 -4
-14 -8 -31 -9 -18 -1 -37 -6 -43 -9 -6 -4 -23 -6 -38 -4 -16 1 -28 -2 -28 -8
0 -6 -13 -11 -30 -11 -16 0 -30 -4 -30 -9 0 -4 -19 -11 -43 -14 -24 -3 -56
-13 -72 -21 -17 -9 -36 -16 -42 -16 -7 0 -13 -4 -13 -9 0 -5 -8 -11 -17 -15
-21 -6 -51 -25 -71 -43 -7 -7 -17 -13 -22 -13 -13 0 -174 -163 -176 -179 -2
-8 -10 -18 -18 -23 -9 -5 -16 -17 -16 -27 0 -10 -15 -33 -32 -51 -18 -18 -26
-29 -18 -25 11 6 10 3 -2 -12 -10 -11 -18 -29 -18 -41 0 -12 -4 -22 -9 -22 -6
0 -13 -20 -17 -45 -3 -25 -10 -45 -15 -45 -5 0 -9 -14 -9 -31 0 -20 -4 -28
-12 -23 -8 5 -9 0 -6 -14 4 -12 2 -25 -3 -28 -5 -3 -9 -21 -9 -40 0 -19 -5
-34 -10 -34 -6 0 -10 -19 -10 -42 -1 -103 -12 -238 -21 -238 -5 0 -9 -190 -9
-480 0 -313 3 -480 10 -480 6 0 10 -111 10 -314 0 -199 -4 -317 -10 -321 -6
-4 -10 -87 -10 -216 0 -149 -3 -208 -11 -203 -8 4 -11 -56 -10 -207 0 -118 -1
-340 -2 -494 -4 -801 3 -1956 13 -1950 7 4 10 -94 10 -300 0 -176 -4 -304 -9
-301 -5 3 -9 -79 -9 -192 0 -269 -11 -504 -23 -496 -10 6 -12 -73 -13 -623 0
-347 3 -473 14 -473 6 0 10 -27 10 -60 0 -34 4 -60 10 -60 6 0 8 -15 4 -40 -4
-27 -3 -40 5 -40 6 0 11 -13 11 -30 0 -16 4 -30 10 -30 5 0 12 -17 16 -37 4
-21 15 -44 26 -51 10 -7 18 -19 18 -27 0 -8 6 -18 14 -22 8 -4 16 -14 18 -22
3 -14 115 -131 125 -131 2 0 11 -6 18 -13 34 -30 45 -37 69 -43 14 -3 26 -10
26 -15 0 -5 9 -9 20 -9 11 0 20 -4 20 -9 0 -6 21 -13 48 -17 26 -4 49 -11 52
-15 3 -5 38 -11 78 -15 40 -4 72 -11 72 -15 0 -5 23 -9 50 -9 28 0 50 -4 50
-9 0 -6 78 -10 190 -10 113 1 188 4 185 10 -4 5 12 9 34 9 23 0 41 5 41 10 0
6 3 9 8 8 16 -3 102 15 102 22 0 4 21 11 46 15 26 3 56 15 68 26 11 11 31 22
43 25 13 4 23 10 23 15 0 5 7 9 15 9 8 0 15 4 15 8 0 5 14 6 31 4 22 -3 30 -1
25 7 -5 7 2 11 18 11 14 0 26 5 26 10 0 6 6 10 14 10 8 0 21 6 28 14 8 7 24
17 36 20 12 4 20 12 17 17 -4 5 5 13 18 18 14 5 36 21 50 35 14 14 27 23 30
20 7 -8 68 57 78 84 5 13 18 26 29 29 11 3 20 10 20 15 0 5 11 19 25 32 14 13
25 28 25 35 0 6 4 11 10 11 5 0 12 16 16 35 3 19 10 35 15 35 5 0 9 7 9 15 0
8 7 15 15 15 9 0 15 9 15 25 0 14 5 25 10 25 6 0 10 11 10 25 0 14 5 25 11 25
6 0 9 9 6 20 -3 11 -2 20 2 20 5 0 9 35 10 78 1 42 6 79 12 80 5 2 9 40 9 83
0 51 -4 78 -10 74 -6 -4 -10 32 -10 100 0 68 4 104 10 100 6 -4 10 7 10 24 0
17 -4 31 -10 31 -6 0 -10 37 -10 91 0 57 4 88 10 84 6 -4 10 5 10 20 0 15 -4
24 -10 20 -7 -4 -10 103 -10 314 0 183 -4 322 -9 325 -5 4 -7 55 -4 121 4 83
3 115 -6 115 -7 0 -11 31 -11 100 0 56 -4 100 -9 100 -10 0 -20 222 -10 230 3
3 2 66 -3 140 -4 74 -8 199 -7 278 0 88 -4 142 -10 142 -7 0 -11 84 -13 228
-2 125 -8 335 -13 467 -5 132 -9 305 -9 385 l-1 145 84 0 c59 0 86 -4 89 -12
2 -7 9 -13 16 -13 6 0 31 -20 54 -45 23 -25 46 -45 51 -45 5 0 13 -10 17 -22
4 -13 15 -30 25 -39 11 -9 19 -21 19 -26 0 -6 7 -16 15 -23 20 -17 105 -193
105 -219 0 -12 9 -32 20 -44 11 -12 18 -27 16 -34 -3 -6 3 -29 14 -50 10 -21
16 -41 13 -45 -2 -5 1 -8 6 -8 6 0 11 -11 11 -25 0 -14 5 -25 10 -25 6 0 10
-9 10 -19 0 -11 6 -26 13 -33 16 -18 39 -62 37 -74 -3 -15 12 -54 20 -54 4 0
11 -20 14 -44 4 -23 15 -52 25 -62 10 -11 21 -38 24 -61 4 -22 14 -53 22 -69
8 -16 15 -35 15 -42 0 -7 5 -10 10 -7 6 3 10 -3 10 -14 0 -12 4 -21 9 -21 5 0
12 -18 16 -40 4 -22 11 -40 16 -40 5 0 9 -11 9 -25 0 -14 4 -25 9 -25 12 0 51
-76 51 -101 0 -11 4 -17 10 -14 5 3 12 -12 16 -35 4 -22 10 -40 15 -40 5 0 9
-6 9 -13 0 -7 8 -17 19 -24 10 -6 21 -24 25 -38 10 -39 40 -105 48 -105 3 0 9
-14 13 -30 4 -17 10 -28 14 -26 4 3 15 -17 25 -45 10 -27 22 -49 26 -49 5 0
12 -20 16 -45 3 -25 10 -45 14 -45 5 0 11 -14 15 -30 4 -16 10 -30 13 -30 8 0
42 -74 42 -90 0 -6 5 -10 10 -10 6 0 10 -7 10 -15 0 -8 4 -15 10 -15 5 0 7 -7
4 -15 -4 -8 -1 -15 5 -15 6 0 11 -9 11 -20 0 -11 4 -20 9 -20 5 0 12 -12 16
-27 3 -15 15 -33 25 -40 10 -7 21 -27 25 -43 4 -17 10 -30 15 -30 5 0 11 -14
15 -30 4 -17 11 -28 16 -24 5 3 9 -2 9 -10 0 -9 3 -16 8 -16 7 0 21 -27 41
-82 6 -16 15 -28 21 -28 5 0 10 -9 10 -20 0 -11 5 -20 11 -20 5 0 8 -4 4 -9
-3 -6 3 -15 14 -20 10 -6 22 -26 25 -45 4 -21 14 -37 25 -41 11 -3 21 -19 25
-37 3 -17 15 -37 25 -44 10 -8 22 -26 26 -41 3 -15 15 -33 26 -41 10 -7 19
-18 19 -24 0 -6 11 -26 25 -44 14 -18 25 -36 25 -39 0 -4 13 -24 29 -44 15
-20 31 -46 35 -58 4 -11 13 -24 21 -27 8 -3 15 -15 15 -26 0 -11 5 -20 10 -20
6 0 10 -6 10 -14 0 -8 7 -16 15 -20 8 -3 15 -15 15 -26 0 -11 5 -20 10 -20 6
0 10 -7 10 -15 0 -9 6 -18 13 -21 7 -2 26 -30 43 -62 16 -31 37 -63 46 -70 10
-7 18 -19 18 -26 0 -7 8 -21 19 -32 10 -11 22 -30 25 -42 4 -12 12 -20 17 -17
5 4 9 -3 9 -13 0 -11 7 -22 15 -26 8 -3 15 -14 15 -25 0 -11 9 -22 20 -26 11
-3 23 -17 26 -31 3 -13 10 -24 14 -24 10 0 50 -67 50 -85 0 -7 9 -16 19 -20
10 -3 22 -17 25 -30 4 -14 11 -25 16 -25 6 0 10 -5 10 -11 0 -6 11 -25 25 -43
14 -17 31 -40 39 -51 9 -11 27 -34 41 -51 14 -18 25 -37 25 -42 0 -6 6 -15 14
-19 8 -4 16 -15 18 -23 2 -8 11 -21 21 -28 9 -7 17 -20 17 -28 0 -8 5 -14 10
-14 6 0 16 -12 23 -27 14 -32 146 -168 154 -159 7 6 43 -32 43 -46 0 -4 9 -8
20 -8 11 0 23 -6 26 -14 3 -8 16 -17 30 -20 13 -4 24 -11 24 -16 0 -6 7 -10
15 -10 8 0 15 -4 15 -9 0 -5 11 -12 25 -15 14 -4 25 -11 25 -16 0 -5 16 -12
35 -16 19 -3 35 -10 35 -15 0 -5 7 -9 15 -9 8 0 15 -4 15 -10 0 -5 18 -13 40
-16 22 -4 40 -10 40 -14 0 -8 58 -26 73 -22 4 1 7 -2 7 -8 0 -5 11 -10 25 -10
14 0 25 -4 25 -10 0 -5 18 -13 40 -16 22 -4 40 -10 40 -14 0 -4 29 -11 65 -15
36 -3 65 -11 65 -16 0 -5 14 -9 30 -9 17 0 30 -5 30 -10 0 -7 48 -10 135 -8
74 1 135 6 135 10 0 4 7 8 16 8 23 0 114 33 114 41 0 4 18 10 40 14 22 4 40
11 40 16 0 5 9 9 19 9 10 0 21 7 25 15 3 8 15 15 26 15 11 0 20 5 20 10 0 6 8
14 17 17 10 4 35 24 56 45 21 21 43 38 48 38 5 0 9 7 9 16 0 9 14 33 30 53 17
20 34 41 38 46 10 12 24 46 27 60 4 32 18 64 25 60 5 -3 11 13 15 35 4 22 11
40 16 40 5 0 9 16 9 36 0 24 4 33 12 28 8 -5 9 4 4 34 -4 26 -2 42 4 42 6 0
10 28 10 65 0 37 4 65 10 65 6 0 10 30 10 71 0 44 -4 68 -10 64 -6 -4 -10 8
-10 29 0 20 -5 36 -11 36 -6 0 -9 9 -6 20 5 20 -12 70 -25 70 -3 0 -9 23 -13
50 -4 28 -11 50 -16 50 -5 0 -9 9 -9 20 0 11 -4 20 -10 20 -5 0 -13 18 -16 40
-4 22 -10 37 -15 35 -4 -3 -11 10 -15 30 -3 19 -10 32 -15 29 -5 -3 -9 6 -9
20 0 14 -4 26 -9 26 -10 0 -41 61 -47 95 -2 13 -20 40 -40 62 -20 21 -45 47
-55 58 -10 12 -19 25 -19 31 0 9 -58 71 -114 123 -14 13 -26 29 -26 37 0 7 -9
18 -20 24 -11 6 -20 17 -20 25 0 8 -29 42 -65 77 -36 35 -65 68 -65 75 0 17
-133 143 -152 143 -5 0 -6 5 -3 10 3 6 -1 10 -10 10 -9 0 -14 4 -10 9 3 5 -4
12 -15 16 -11 4 -18 11 -15 16 4 5 1 9 -6 9 -16 0 -80 66 -72 74 4 3 1 6 -6 6
-7 0 -53 40 -101 89 -49 49 -98 92 -109 96 -12 3 -21 11 -21 17 0 5 -6 8 -13
5 -7 -3 -19 4 -25 14 -7 10 -19 19 -28 19 -8 0 -12 5 -9 10 3 6 2 10 -3 10
-12 0 -194 176 -192 185 2 6 -57 71 -92 101 -7 7 -28 28 -46 48 -19 20 -37 36
-41 36 -5 0 -21 19 -36 43 -16 23 -41 53 -57 66 -15 13 -28 32 -28 42 0 11 -6
19 -13 19 -7 0 -20 12 -29 28 -9 15 -30 41 -47 57 -17 17 -31 35 -31 41 0 7
-14 22 -30 35 -17 13 -40 40 -51 59 -12 19 -30 40 -40 48 -10 7 -19 18 -19 24
0 9 -36 57 -75 99 -8 9 -15 20 -15 25 0 5 -9 16 -20 24 -11 8 -20 19 -20 26 0
6 -9 21 -20 34 -11 13 -20 27 -20 31 0 4 -12 21 -26 36 -14 15 -33 45 -42 66
-9 20 -20 37 -24 37 -5 0 -8 7 -8 15 0 8 -4 15 -9 15 -5 0 -12 16 -15 35 -4
19 -11 35 -16 35 -5 0 -12 11 -16 25 -3 14 -10 25 -15 25 -5 0 -9 7 -9 15 0 8
-3 15 -7 15 -10 0 -40 65 -49 103 -3 15 -10 27 -15 27 -5 0 -9 7 -9 15 0 8 -4
15 -10 15 -5 0 -12 11 -16 25 -3 14 -10 25 -14 25 -12 0 -70 120 -70 145 0 12
-9 31 -21 43 -14 15 -18 29 -14 43 5 15 4 19 -4 15 -7 -4 -11 1 -11 13 0 12
-4 21 -10 21 -5 0 -10 13 -10 29 0 17 -4 32 -9 35 -5 3 -6 27 -3 52 3 34 2 45
-7 40 -8 -5 -11 15 -11 73 0 53 4 81 11 81 7 0 9 9 5 24 -4 17 1 29 22 47 45
39 88 59 126 59 22 0 36 5 36 13 0 9 3 8 9 -2 7 -10 10 -10 13 -1 3 9 46 15
149 20 79 4 122 8 94 10 -27 2 18 7 100 11 83 4 159 9 170 12 11 3 46 8 78 12
31 4 57 11 57 15 0 5 14 11 30 15 17 4 30 11 30 16 0 5 7 9 15 9 16 0 83 30
102 45 7 6 19 16 27 23 8 6 17 12 20 12 3 0 30 25 61 55 30 30 60 55 66 55 12
0 21 8 103 87 35 34 74 80 87 103 12 22 26 40 30 40 4 0 10 12 14 27 3 15 10
30 13 33 4 3 14 21 23 40 9 19 28 60 42 90 14 30 28 73 32 95 4 22 10 42 15
45 10 6 40 180 40 231 0 21 5 39 10 41 6 2 12 66 15 153 3 86 9 151 15 153 13
5 14 392 1 392 -10 0 -20 194 -19 373 0 55 -4 87 -11 87 -6 0 -11 20 -11 48 0
26 -5 53 -10 58 -6 6 -13 40 -17 77 -3 37 -10 67 -14 67 -5 0 -9 11 -9 25 0
14 -5 25 -11 25 -7 0 -8 11 -4 31 5 22 4 29 -4 25 -7 -5 -11 5 -11 28 0 20 -4
36 -9 36 -6 0 -13 20 -17 45 -3 25 -10 43 -14 40 -4 -3 -10 13 -14 35 -3 22
-10 40 -15 40 -14 0 -76 132 -72 154 1 10 -1 16 -6 13 -4 -3 -17 15 -28 39
-11 24 -23 44 -27 44 -5 0 -8 7 -8 15 0 8 -4 15 -10 15 -5 0 -10 9 -10 20 0
11 -7 23 -15 26 -8 4 -15 14 -15 24 0 10 -11 25 -25 34 -15 10 -23 22 -19 29
4 7 4 9 -1 5 -4 -4 -29 14 -55 40 -26 26 -58 54 -70 62 -13 8 -39 31 -59 51
-20 20 -46 39 -58 43 -12 4 -25 16 -28 26 -3 10 -16 22 -27 26 -23 7 -35 16
-75 52 -13 12 -28 20 -33 17 -5 -3 -15 3 -22 15 -7 11 -20 20 -29 20 -9 0 -22
7 -29 15 -7 8 -22 15 -33 15 -11 0 -17 3 -14 6 7 7 -79 53 -100 54 -7 0 -13 5
-13 10 0 6 -7 10 -16 10 -8 0 -13 4 -10 9 4 5 -7 12 -24 16 -16 4 -30 11 -30
16 0 5 -7 9 -15 9 -15 0 -87 31 -95 41 -3 4 -20 10 -37 14 -18 3 -33 10 -33
14 0 6 -60 25 -122 38 -15 3 -26 9 -23 13 3 5 -17 11 -45 15 -27 4 -52 11 -55
15 -3 4 -32 11 -65 15 -33 4 -60 11 -60 16 0 5 -11 9 -25 9 -14 0 -25 4 -25 9
0 6 -31 13 -70 17 -38 3 -70 10 -70 14 0 6 -67 19 -117 22 -7 1 -13 5 -13 10
0 4 -14 8 -31 8 -16 0 -28 4 -25 9 6 9 -64 21 -125 21 -22 0 -39 4 -39 9 0 6
-86 12 -202 15 -213 5 -264 9 -275 19 -7 8 -38 7 -168 -4z m-35 -1517 c0 -5
68 -12 151 -15 86 -3 156 -10 162 -16 6 -6 31 -11 55 -11 24 0 41 -4 38 -9 -3
-4 18 -11 47 -14 28 -4 53 -11 55 -17 2 -5 10 -10 19 -10 16 0 74 -30 84 -44
4 -5 12 -5 18 -2 6 4 11 2 11 -3 0 -6 8 -11 17 -11 9 0 13 -3 10 -7 -6 -5 11
-18 51 -39 34 -17 152 -151 152 -172 0 -5 6 -15 14 -21 8 -7 18 -26 21 -42 4
-16 11 -29 15 -29 5 0 7 -7 4 -15 -4 -8 -1 -15 5 -15 6 0 11 -7 11 -15 0 -8 5
-15 10 -15 6 0 10 -9 10 -19 0 -11 5 -23 10 -26 6 -3 7 -17 4 -31 -4 -14 -2
-24 5 -24 7 0 11 -39 11 -120 0 -78 -4 -120 -11 -120 -7 0 -10 -35 -9 -97 0
-105 -7 -163 -21 -163 -5 0 -9 -7 -9 -15 0 -8 -14 -27 -32 -42 -17 -16 -38
-36 -47 -45 -8 -10 -21 -18 -28 -18 -7 0 -13 -4 -13 -10 0 -5 -8 -10 -18 -10
-10 0 -23 -5 -28 -10 -6 -6 -35 -13 -65 -17 -30 -3 -57 -10 -60 -16 -4 -5 -77
-12 -163 -15 -85 -2 -153 -9 -150 -13 3 -5 -75 -9 -173 -9 -100 0 -172 4 -165
9 8 5 -69 10 -179 13 -131 4 -194 9 -197 17 -2 6 -21 11 -41 11 -26 0 -44 7
-59 23 -22 24 -22 26 -21 373 2 489 8 698 19 702 6 2 10 14 10 27 0 13 7 30
15 39 8 8 15 20 15 26 0 6 5 8 10 5 6 -3 10 0 10 7 0 17 59 67 87 74 13 4 20
10 17 15 -3 5 64 9 155 9 89 0 161 -4 161 -8z"/>
<path d="M29060 15243 c-41 -2 -79 -8 -84 -13 -6 -6 -20 -10 -33 -10 -13 0
-23 -4 -23 -9 0 -4 -11 -6 -25 -3 -15 2 -25 0 -25 -7 0 -6 -9 -11 -19 -11 -11
0 -22 -4 -25 -9 -3 -5 -21 -12 -40 -15 -19 -4 -39 -13 -46 -21 -7 -8 -19 -15
-27 -15 -8 0 -11 -4 -8 -10 3 -5 -1 -10 -9 -10 -8 0 -21 -9 -28 -19 -8 -11
-26 -25 -41 -32 -15 -7 -27 -16 -27 -20 0 -4 -18 -27 -40 -50 -22 -24 -40 -48
-40 -55 0 -6 -7 -17 -14 -24 -8 -6 -25 -33 -37 -58 -13 -26 -26 -49 -30 -52
-3 -3 -10 -24 -14 -47 -4 -24 -11 -45 -16 -49 -5 -3 -9 -19 -9 -35 0 -18 -4
-28 -10 -24 -6 4 -10 -14 -10 -47 -1 -29 -7 -71 -15 -93 -19 -51 -21 -339 -3
-382 6 -15 13 -41 15 -58 3 -16 8 -32 13 -35 4 -3 11 -29 15 -58 4 -28 11 -49
16 -46 5 3 9 -3 9 -14 0 -24 26 -76 45 -92 8 -7 15 -19 15 -26 0 -8 5 -14 10
-14 6 0 10 -5 10 -10 0 -11 11 -26 48 -66 12 -14 22 -30 22 -35 0 -6 12 -23
28 -39 15 -15 41 -46 57 -68 17 -23 37 -44 45 -47 8 -3 31 -20 50 -38 19 -18
58 -42 87 -52 29 -10 50 -22 47 -27 -3 -4 3 -8 13 -8 10 0 29 -7 41 -16 13 -9
26 -14 28 -11 3 3 28 -4 57 -14 45 -17 81 -19 274 -19 122 0 224 4 227 9 4 5
29 12 56 16 28 4 50 11 50 16 0 5 11 11 25 15 14 3 25 10 25 15 0 5 6 9 14 9
17 0 80 32 84 43 2 4 12 7 22 7 11 0 23 6 27 13 4 7 22 21 38 31 17 11 37 27
45 36 8 10 25 20 38 24 12 4 22 11 22 16 0 5 9 12 20 15 11 3 20 12 20 19 0 8
26 37 58 66 31 30 62 66 69 82 7 15 16 28 21 28 9 0 27 47 24 63 -1 4 2 7 8 7
5 0 10 11 10 25 0 14 4 25 10 25 5 0 7 13 4 30 -4 19 -2 30 5 30 6 0 11 18 11
45 0 33 4 45 15 45 12 0 14 35 14 241 -1 189 -4 241 -14 245 -7 3 -16 25 -20
50 -3 24 -10 42 -16 39 -5 -4 -9 3 -9 14 0 12 -4 21 -9 21 -5 0 -12 14 -16 30
-4 17 -11 30 -16 30 -4 0 -20 25 -35 56 -14 30 -32 58 -40 61 -8 3 -14 11 -14
19 0 14 -164 184 -178 184 -5 0 -19 9 -32 20 -13 11 -29 20 -37 20 -7 0 -13 5
-13 10 0 6 -9 10 -20 10 -11 0 -20 4 -20 8 0 11 -82 52 -104 52 -9 0 -16 5
-16 10 0 6 -11 10 -25 10 -14 0 -25 5 -25 10 0 6 -13 10 -29 10 -49 0 -121 12
-116 20 12 19 -160 24 -405 13z m334 -403 c33 -5 93 -25 133 -44 125 -60 188
-143 269 -353 34 -89 45 -266 21 -336 -35 -103 -145 -223 -247 -269 -114 -52
-209 -70 -345 -66 -111 3 -124 6 -173 33 -30 16 -73 50 -96 76 -52 58 -159
263 -180 345 -32 126 -13 319 40 403 31 48 124 122 210 166 62 31 92 40 153
46 119 10 152 10 215 -1z"/>
<path d="M10305 15181 c-3 -5 -89 -10 -192 -11 -102 0 -190 -3 -195 -6 -4 -3
-69 -5 -143 -5 -74 1 -135 -3 -135 -8 0 -4 -34 -11 -77 -14 -42 -3 -79 -10
-82 -15 -6 -9 -13 -11 -108 -34 -29 -6 -53 -15 -53 -19 0 -4 -25 -11 -55 -14
-30 -4 -52 -11 -49 -16 3 -5 -6 -9 -20 -9 -14 0 -40 -8 -58 -18 -18 -10 -39
-17 -45 -15 -7 3 -13 0 -13 -5 0 -5 -16 -12 -36 -15 -20 -3 -44 -16 -54 -27
-10 -12 -21 -21 -24 -21 -12 1 -42 -13 -54 -26 -7 -7 -19 -13 -25 -13 -7 0
-21 -11 -31 -25 -10 -14 -26 -25 -35 -25 -9 0 -22 -9 -29 -21 -7 -12 -16 -18
-19 -15 -3 3 -19 -10 -36 -29 -16 -19 -36 -35 -43 -35 -7 0 -19 -10 -25 -22
-7 -13 -24 -33 -38 -46 -14 -12 -30 -27 -36 -33 -5 -5 -20 -20 -32 -31 -13
-12 -23 -26 -23 -31 0 -5 -18 -27 -40 -49 -22 -22 -40 -44 -40 -48 0 -5 -13
-21 -28 -37 -16 -15 -37 -41 -47 -58 -11 -16 -25 -34 -32 -38 -7 -4 -13 -14
-13 -22 0 -8 -9 -20 -19 -27 -11 -8 -23 -26 -26 -41 -4 -15 -11 -27 -16 -27
-5 0 -9 -11 -9 -25 0 -14 -5 -25 -11 -25 -5 0 -7 -5 -4 -10 3 -6 -3 -24 -15
-40 -12 -17 -20 -36 -17 -43 3 -7 -4 -24 -14 -38 -10 -13 -19 -34 -19 -46 0
-13 -5 -23 -10 -23 -6 0 -8 -11 -4 -25 4 -15 2 -25 -5 -25 -6 0 -11 -11 -11
-25 0 -14 -4 -25 -9 -25 -5 0 -13 -29 -16 -65 -4 -36 -11 -65 -16 -65 -5 0 -9
-13 -9 -30 0 -16 -5 -30 -11 -30 -8 0 -9 -13 -5 -39 3 -23 2 -42 -4 -46 -5 -3
-10 -42 -10 -86 0 -43 -4 -79 -9 -79 -6 0 -10 -500 -10 -1266 -1 -848 2 -1263
9 -1259 7 4 10 -70 10 -219 0 -124 4 -227 8 -230 5 -3 7 -30 4 -61 -3 -37 -1
-55 7 -55 8 0 11 -304 11 -1146 0 -811 -3 -1143 -11 -1139 -7 5 -10 -14 -10
-56 0 -119 -10 -289 -18 -289 -4 0 -11 -50 -14 -110 -4 -61 -11 -119 -17 -130
-5 -10 -10 -74 -10 -142 0 -83 -3 -118 -10 -108 -6 10 -10 -46 -10 -167 0
-116 4 -183 10 -183 6 0 10 -18 10 -40 0 -22 7 -57 15 -77 8 -19 15 -44 15
-53 0 -10 3 -20 8 -22 4 -1 18 -25 32 -51 14 -26 37 -62 52 -80 16 -18 28 -35
28 -39 0 -5 7 -8 15 -8 7 0 18 -6 22 -12 4 -7 25 -22 46 -32 20 -11 37 -23 37
-28 0 -4 6 -8 14 -8 8 0 21 -6 28 -13 7 -6 32 -21 55 -32 24 -11 43 -23 43
-27 0 -5 10 -8 23 -8 12 0 35 -7 51 -15 15 -8 38 -15 50 -15 12 0 27 -5 32
-10 6 -6 43 -14 82 -17 39 -3 69 -10 66 -14 -3 -5 103 -9 235 -9 154 0 241 4
241 10 0 6 7 10 16 10 23 0 114 33 114 41 0 4 18 10 41 14 22 4 38 9 35 12 -6
7 63 43 81 43 7 0 13 4 13 9 0 5 11 12 25 15 13 3 35 17 49 31 14 14 32 25 39
25 8 0 17 7 21 15 3 8 11 15 18 15 7 0 33 23 58 50 24 28 50 50 57 50 8 0 18
11 23 25 5 14 17 28 25 31 9 4 24 25 35 48 10 23 30 51 44 61 14 10 28 30 31
44 4 14 15 32 26 42 10 9 22 32 26 50 3 19 10 37 16 40 5 4 12 27 14 53 3 25
10 46 14 46 5 0 9 11 9 25 0 14 5 25 11 25 7 0 9 11 6 30 -4 16 -2 32 3 35 6
3 10 55 10 116 0 66 4 109 10 109 6 0 10 78 10 215 0 137 -4 215 -10 215 -5 0
-10 20 -10 44 0 25 -4 48 -10 51 -5 3 -7 19 -3 35 3 19 1 30 -6 30 -6 0 -11
17 -11 39 0 22 -4 42 -9 45 -5 3 -12 33 -16 66 -4 33 -11 60 -16 60 -5 0 -9
11 -9 24 0 14 -4 27 -9 30 -5 3 -7 16 -3 28 3 14 2 19 -6 14 -8 -5 -12 5 -12
33 0 22 -4 42 -9 45 -4 3 -11 24 -15 46 -3 22 -11 40 -16 40 -6 0 -10 15 -11
33 0 30 -17 84 -18 62 -2 -22 -30 48 -37 90 -3 25 -10 45 -15 45 -5 0 -9 7 -9
15 0 8 -4 15 -10 15 -5 0 -7 7 -4 15 4 8 1 15 -5 15 -6 0 -11 14 -11 30 0 17
-4 30 -9 30 -11 0 -24 57 -21 98 1 17 -3 32 -9 32 -6 0 -11 21 -11 50 0 28 -3
50 -7 50 -5 0 -7 39 -5 86 3 60 0 84 -7 79 -7 -4 -11 14 -11 54 0 34 -4 61
-10 61 -6 0 -10 38 -10 95 0 57 4 95 10 95 6 0 10 21 10 46 0 32 3 43 12 38 8
-5 9 -2 5 9 -13 34 50 111 100 123 15 4 31 11 34 17 4 5 48 12 98 15 50 2 88
9 85 13 -3 5 33 9 80 9 47 0 88 5 91 10 4 6 87 10 215 10 128 0 211 -4 215
-10 3 -5 24 -10 46 -10 26 0 38 -4 33 -11 -4 -7 9 -10 40 -8 25 2 48 0 52 -4
4 -4 18 -7 31 -7 13 0 23 -4 23 -9 0 -5 18 -11 40 -15 22 -3 40 -11 40 -16 0
-6 7 -10 15 -10 8 0 15 -5 15 -11 0 -6 7 -9 15 -5 9 3 20 -3 27 -14 7 -11 18
-20 25 -20 7 0 20 -16 29 -36 10 -20 28 -47 41 -60 13 -13 23 -34 23 -48 0
-14 4 -27 9 -30 5 -3 7 -15 4 -26 -3 -11 0 -20 6 -20 6 0 11 -11 11 -24 0 -14
4 -27 9 -31 6 -3 13 -26 17 -50 3 -25 10 -45 15 -45 5 0 9 -13 9 -30 0 -16 5
-30 10 -30 6 0 8 -11 4 -25 -4 -15 -2 -25 5 -25 6 0 11 -13 11 -29 0 -16 4
-31 10 -33 5 -1 13 -60 16 -130 4 -71 10 -128 14 -128 15 0 21 -324 20 -1108
0 -568 2 -822 10 -817 6 4 10 -10 10 -39 0 -25 4 -47 9 -50 4 -3 11 -24 14
-47 3 -23 9 -45 14 -48 10 -6 43 -74 43 -87 0 -4 13 -19 28 -33 16 -14 31 -34
35 -43 3 -9 19 -25 34 -35 15 -10 38 -28 51 -40 13 -13 29 -23 37 -23 8 0 15
-4 15 -10 0 -5 7 -10 15 -10 8 0 15 -4 15 -10 0 -5 11 -12 25 -16 14 -3 25
-10 25 -14 0 -7 57 -24 73 -21 4 0 7 -3 7 -9 0 -5 7 -10 15 -10 8 0 15 -4 15
-9 0 -5 21 -12 48 -16 26 -4 50 -11 53 -16 3 -5 25 -12 50 -15 24 -4 45 -10
47 -15 2 -5 24 -9 48 -9 24 0 44 -4 44 -9 0 -6 74 -10 175 -10 104 1 173 4
169 10 -3 5 13 9 35 9 23 0 41 5 41 10 0 6 3 9 8 8 16 -3 102 15 102 22 0 4
18 10 40 14 22 3 40 11 40 16 0 6 7 10 15 10 8 0 15 4 15 9 0 5 14 13 32 16
17 4 38 14 46 21 7 8 20 14 27 14 8 0 17 9 20 20 3 11 9 20 13 20 24 1 111
103 146 173 11 20 23 37 29 37 5 0 7 9 4 20 -3 11 -2 20 1 20 11 0 30 52 37
103 4 26 11 47 16 47 5 0 9 11 9 24 0 13 5 26 11 28 6 2 13 31 16 65 3 35 9
61 13 58 12 -7 20 174 20 436 0 263 -8 402 -21 393 -5 -3 -9 24 -9 60 0 36 -4
67 -9 70 -4 3 -6 17 -3 32 3 16 -1 29 -8 34 -9 6 -13 28 -11 69 1 37 -2 61 -8
61 -7 0 -11 23 -11 53 0 30 -3 57 -7 61 -4 4 -6 37 -4 73 2 46 0 63 -8 59 -7
-5 -11 10 -11 47 0 29 -3 57 -7 61 -4 4 -6 39 -4 78 2 49 0 68 -8 64 -7 -5
-11 11 -11 48 0 31 -4 56 -9 56 -9 0 -22 130 -21 208 1 23 -3 42 -9 42 -9 0
-21 114 -21 203 1 31 -3 46 -10 42 -6 -4 -10 18 -10 64 0 39 -4 71 -9 71 -11
0 -21 95 -20 194 0 46 -3 66 -10 61 -8 -4 -11 17 -11 64 0 38 -4 72 -8 75 -5
3 -7 31 -4 62 3 41 2 55 -7 50 -8 -5 -11 13 -11 63 0 39 -4 71 -9 71 -5 0 -12
38 -16 85 -4 47 -11 82 -16 79 -5 -3 -9 15 -9 40 0 25 -4 48 -10 51 -5 3 -10
20 -10 38 1 48 -11 117 -20 117 -4 0 -11 32 -14 70 -4 39 -11 70 -17 70 -5 0
-9 15 -9 34 0 19 -4 37 -9 40 -5 3 -12 31 -16 61 -3 30 -10 55 -15 55 -5 0
-11 34 -15 75 -4 41 -11 75 -16 75 -5 0 -9 18 -9 40 0 22 -4 40 -9 40 -10 0
-22 109 -21 194 1 39 -2 56 -9 51 -7 -4 -11 8 -11 34 0 22 -4 42 -9 45 -5 3
-7 25 -4 48 4 29 3 39 -5 34 -9 -5 -12 7 -12 38 0 25 -4 46 -9 46 -11 0 -22
53 -21 108 1 23 -3 42 -9 42 -5 0 -13 29 -16 65 -4 36 -11 65 -16 65 -5 0 -9
11 -9 24 0 13 -4 26 -10 28 -5 2 -12 40 -16 85 -4 45 -11 80 -15 77 -5 -3 -9
15 -9 40 0 25 -4 47 -9 51 -5 3 -7 31 -4 62 5 41 3 54 -5 49 -9 -5 -12 6 -12
38 0 25 -4 46 -9 46 -9 0 -23 112 -22 173 1 20 -3 37 -8 37 -5 0 -12 43 -16
95 -4 52 -11 93 -16 89 -5 -3 -9 15 -9 40 0 25 -4 46 -9 46 -5 0 -13 29 -16
65 -4 36 -11 65 -16 65 -5 0 -9 18 -9 39 0 22 -4 42 -9 45 -5 3 -7 25 -4 48 4
29 3 39 -5 34 -8 -5 -12 4 -12 28 0 20 -4 36 -9 36 -6 0 -13 32 -17 70 -3 39
-11 70 -15 70 -5 0 -9 16 -9 35 0 19 -5 35 -11 35 -6 0 -8 9 -4 21 5 13 2 25
-6 30 -8 4 -12 22 -11 43 2 20 -2 36 -7 36 -9 0 -21 48 -22 85 0 11 -4 22 -9
25 -5 3 -10 20 -12 38 -1 18 -5 32 -9 32 -4 0 -5 9 -2 20 3 11 0 20 -6 20 -6
0 -11 9 -11 20 0 11 -4 20 -10 20 -5 0 -10 9 -10 20 0 11 -5 20 -11 20 -7 0
-9 10 -5 25 4 14 2 25 -4 25 -5 0 -10 7 -10 15 0 8 -4 15 -10 15 -5 0 -12 17
-16 38 -4 20 -15 49 -25 63 -10 14 -21 37 -24 52 -4 15 -11 27 -15 27 -5 0
-11 14 -15 30 -4 17 -10 30 -15 30 -4 0 -11 16 -14 35 -4 19 -11 35 -16 35 -6
0 -10 6 -10 14 0 8 -3 16 -7 18 -15 6 -64 89 -70 118 -3 17 -9 30 -13 30 -5 0
-12 14 -15 31 -5 23 -9 28 -16 18 -7 -11 -9 -10 -9 4 0 9 -4 17 -10 17 -5 0
-10 8 -10 19 0 10 -7 24 -15 31 -8 7 -15 18 -15 26 0 7 -6 17 -12 21 -7 4 -19
17 -26 28 -7 11 -22 35 -33 53 -12 17 -25 32 -30 32 -4 0 -15 15 -24 34 -9 19
-23 37 -31 40 -8 3 -14 14 -14 25 0 11 -9 22 -20 26 -11 3 -20 10 -20 15 0 12
-4 15 -150 140 -19 16 -41 30 -48 30 -7 0 -10 4 -7 10 3 5 -6 12 -20 16 -14 3
-25 10 -25 14 0 5 -9 12 -21 15 -11 4 -36 22 -54 40 -19 18 -50 36 -70 39 -19
4 -35 11 -35 16 0 6 -7 10 -15 10 -8 0 -15 4 -15 9 0 5 -22 12 -50 16 -27 4
-50 11 -50 15 0 5 -26 12 -57 15 -32 4 -66 8 -75 9 -10 1 -21 5 -24 9 -11 11
-492 8 -499 -2z m461 -356 c27 -8 88 -26 135 -40 202 -59 429 -274 588 -556
185 -326 301 -585 347 -774 9 -38 27 -106 40 -150 12 -44 27 -105 33 -135 6
-30 29 -138 51 -240 51 -231 74 -348 94 -475 25 -150 36 -216 47 -262 5 -23 9
-58 9 -78 0 -20 6 -68 14 -108 49 -246 59 -292 72 -330 8 -23 21 -73 29 -112
7 -38 23 -110 34 -160 31 -131 40 -181 46 -265 4 -41 10 -91 15 -110 5 -19 16
-75 25 -125 9 -49 21 -106 26 -125 55 -211 101 -412 135 -600 9 -47 20 -104
25 -127 5 -23 9 -57 9 -76 0 -18 6 -74 14 -123 8 -49 19 -136 25 -194 6 -58
16 -136 22 -175 7 -38 15 -106 19 -150 4 -44 13 -118 19 -165 23 -162 40 -296
61 -455 11 -88 25 -191 31 -230 5 -38 16 -146 24 -240 8 -93 24 -237 35 -320
23 -165 49 -422 57 -555 7 -126 -16 -262 -73 -440 -53 -161 -88 -202 -214
-255 -101 -42 -163 -55 -270 -55 -120 0 -209 18 -332 66 -157 62 -229 120
-260 213 -9 27 -14 276 -18 956 -7 1013 -12 1090 -72 1355 -23 102 -152 499
-176 544 -36 66 -114 150 -176 190 -47 30 -205 99 -286 126 -19 6 -102 24
-183 40 -129 26 -169 30 -315 30 -92 -1 -214 -7 -272 -15 -58 -7 -148 -19
-200 -25 -52 -7 -135 -23 -185 -35 -49 -13 -121 -32 -159 -41 -60 -16 -76 -25
-122 -71 -66 -67 -95 -117 -125 -213 -23 -72 -24 -86 -23 -370 1 -162 6 -324
12 -360 36 -218 47 -280 74 -415 17 -82 37 -168 45 -190 37 -102 133 -452 159
-580 15 -75 34 -289 38 -445 3 -98 -12 -202 -39 -266 -22 -53 -138 -227 -186
-279 -71 -77 -207 -140 -368 -171 -132 -25 -473 6 -561 51 -34 18 -103 107
-128 166 -67 156 -65 357 11 1064 11 97 13 793 10 2525 0 44 0 187 1 318 1
156 -4 266 -13 322 -8 55 -14 201 -17 410 -2 179 -7 386 -12 460 -12 194 2
891 22 1085 9 88 20 203 25 255 25 244 40 322 87 440 90 225 148 329 314 565
94 133 318 322 460 388 155 72 357 99 849 111 95 3 176 8 179 11 3 3 87 5 188
5 132 0 195 -4 230 -15z"/>
<path d="M9895 13571 c-103 -30 -243 -118 -322 -204 -59 -64 -123 -200 -138
-292 -3 -22 -13 -58 -20 -81 -23 -69 -36 -234 -48 -599 -14 -450 -13 -962 3
-1035 18 -80 45 -159 85 -245 19 -42 35 -78 35 -80 0 -2 20 -32 44 -67 85
-121 154 -168 336 -229 l95 -31 225 6 c124 4 350 14 504 22 230 13 287 19 329
35 108 43 163 106 214 246 l35 98 -7 240 c-9 341 -22 564 -39 685 -8 58 -20
143 -26 190 -25 187 -77 380 -145 535 -23 52 -59 151 -90 245 -38 116 -95 210
-190 308 -111 115 -275 222 -340 222 -13 0 -55 11 -93 25 -64 23 -82 25 -228
24 -117 -1 -175 -6 -219 -18z m325 -343 c0 -5 11 -8 25 -8 14 0 25 -4 25 -10
0 -5 16 -12 35 -16 19 -3 35 -10 35 -15 0 -5 9 -9 20 -9 11 0 20 -5 20 -11 0
-6 7 -9 15 -5 8 3 15 1 15 -4 0 -13 41 -50 50 -45 10 6 57 -46 65 -72 3 -13
11 -23 16 -23 5 0 9 -7 9 -15 0 -7 6 -18 13 -22 14 -8 47 -73 47 -92 0 -6 5
-11 10 -11 6 0 10 -9 10 -20 0 -11 4 -20 10 -20 5 0 7 -7 4 -15 -4 -8 -1 -15
5 -15 6 0 11 -7 11 -15 0 -8 4 -15 10 -15 5 0 13 -18 16 -40 4 -22 10 -40 15
-40 5 0 9 -7 9 -15 0 -8 5 -15 11 -15 6 0 9 -9 6 -20 -3 -11 -1 -20 4 -20 5 0
9 -9 9 -20 0 -11 5 -20 10 -20 6 0 10 -9 10 -19 0 -11 5 -23 10 -26 6 -4 8
-15 5 -26 -4 -10 -2 -19 3 -19 5 0 13 -29 17 -65 3 -36 11 -65 16 -65 5 0 9
-15 9 -34 0 -19 4 -36 10 -38 5 -1 13 -56 16 -120 4 -65 11 -118 16 -118 4 0
8 -22 8 -49 0 -28 5 -53 11 -57 9 -5 10 -47 5 -150 -5 -99 -4 -144 3 -144 7 0
11 -35 11 -95 0 -57 4 -95 10 -95 6 0 10 -48 10 -125 0 -77 -4 -125 -10 -125
-5 0 -10 -11 -10 -23 0 -25 -45 -72 -90 -94 -28 -14 -711 -24 -785 -11 -49 8
-75 18 -75 28 0 4 -16 10 -35 13 -44 7 -95 59 -102 103 -3 19 -9 34 -14 34 -5
0 -12 18 -15 40 -4 22 -10 37 -15 34 -5 -3 -9 30 -9 74 0 43 -3 82 -6 85 -4 4
-6 72 -5 153 2 101 -1 144 -8 139 -8 -4 -11 27 -11 99 0 59 -4 108 -10 111 -5
3 -10 19 -10 36 0 16 5 29 10 29 6 0 10 100 10 280 0 195 3 280 11 280 7 0 10
43 9 133 -2 150 7 257 22 257 5 0 9 12 8 28 -1 15 -2 32 -1 38 1 13 77 94 88
94 5 0 19 9 32 19 13 10 32 16 42 14 11 -3 19 0 19 6 0 6 17 11 40 11 22 0 40
3 40 8 0 4 41 7 90 7 50 0 90 -3 90 -7z"/>
<path d="M28995 12380 c-3 -5 -17 -10 -30 -10 -13 0 -27 -4 -30 -10 -3 -5 -28
-12 -55 -16 -28 -4 -50 -10 -50 -15 0 -5 -10 -9 -22 -9 -13 0 -32 -7 -42 -15
-11 -8 -28 -15 -37 -15 -10 0 -24 -9 -32 -20 -8 -11 -16 -17 -20 -14 -3 3 -18
-6 -32 -20 -14 -14 -30 -26 -36 -26 -11 0 -33 -17 -52 -39 -7 -8 -29 -31 -49
-51 -21 -20 -38 -41 -38 -46 0 -5 -8 -17 -17 -26 -31 -29 -42 -45 -49 -72 -3
-14 -10 -26 -15 -26 -5 0 -9 -11 -9 -25 0 -14 -7 -36 -16 -49 -8 -13 -14 -35
-13 -48 4 -42 -1 -59 -12 -52 -9 5 -10 -6 -7 -40 3 -25 2 -49 -3 -52 -5 -3 -9
-41 -9 -84 0 -47 -4 -82 -11 -86 -7 -4 -9 -24 -6 -50 2 -25 1 -47 -4 -50 -5
-3 -9 -41 -9 -85 0 -51 -4 -78 -10 -74 -6 4 -10 -45 -10 -139 0 -81 -4 -146
-9 -146 -5 0 -11 -48 -14 -107 -2 -60 -10 -150 -17 -201 -12 -80 -11 -95 1
-103 11 -7 11 -11 1 -17 -9 -6 -13 -42 -14 -128 -1 -314 -25 -814 -39 -814 -6
0 -9 -40 -8 -97 3 -119 -11 -313 -22 -313 -4 0 -7 -27 -7 -61 1 -40 -4 -64
-12 -69 -9 -6 -11 -26 -8 -74 3 -36 2 -69 -3 -72 -5 -3 -9 -16 -9 -30 0 -13
-4 -24 -9 -24 -5 0 -12 -53 -16 -117 -4 -64 -11 -124 -16 -132 -5 -9 -14 -83
-20 -166 -15 -219 -17 -252 -18 -338 -1 -49 -5 -76 -11 -72 -7 4 -10 -87 -10
-265 0 -178 3 -269 10 -265 11 7 13 -18 10 -112 -1 -38 2 -63 8 -63 10 0 21
-114 22 -212 0 -21 4 -38 9 -38 10 0 21 -73 21 -128 0 -18 4 -31 9 -28 11 7
21 -17 21 -50 0 -14 4 -22 10 -19 6 4 10 -7 10 -25 0 -18 4 -29 10 -25 6 4 10
-5 10 -19 0 -14 4 -26 8 -26 5 0 19 -22 31 -50 12 -27 27 -50 32 -50 5 0 9 -9
9 -20 0 -11 7 -23 15 -26 8 -4 15 -13 15 -21 0 -8 4 -12 9 -9 5 3 14 -8 20
-24 6 -17 17 -30 27 -30 9 0 27 -11 40 -25 13 -14 30 -25 37 -25 8 0 17 -7 21
-15 3 -8 12 -15 21 -15 8 0 15 -4 15 -10 0 -5 16 -12 35 -16 19 -3 35 -10 35
-15 0 -5 7 -9 16 -9 20 0 87 -31 96 -44 5 -7 8 -5 8 4 0 9 3 11 8 5 11 -15 75
-43 116 -50 20 -4 39 -11 42 -16 3 -5 21 -9 40 -9 23 0 33 -4 28 -11 -4 -7 8
-10 37 -9 24 2 52 -1 62 -5 30 -13 350 -1 355 13 2 7 9 12 16 12 24 0 113 50
155 88 14 12 29 22 33 22 15 0 168 160 168 175 0 9 5 13 10 10 6 -3 10 1 10 9
0 9 4 16 9 16 5 0 12 11 15 25 4 14 13 25 20 25 8 0 17 11 20 25 4 14 13 28
20 31 8 3 12 14 9 25 -3 10 0 19 6 19 6 0 11 7 11 15 0 8 5 15 11 15 7 0 9 11
6 26 -3 15 0 28 8 30 7 3 16 21 19 40 4 19 12 34 18 34 6 0 8 10 4 24 -3 14
-2 28 4 31 5 3 10 26 10 51 0 24 5 44 10 44 6 0 10 17 10 38 0 65 11 156 21
177 5 11 9 29 8 40 -1 11 -1 36 0 55 1 27 4 32 11 20 7 -10 10 31 9 131 -1 81
3 154 8 165 16 30 26 114 14 114 -13 0 -15 27 -2 32 5 2 11 53 14 113 3 61 10
123 16 138 6 16 11 64 11 108 0 54 3 78 11 74 7 -5 10 29 11 106 1 401 11 815
20 826 5 7 9 41 8 75 -4 94 -2 120 11 112 8 -4 11 32 10 122 -1 222 10 485 20
478 5 -3 9 6 9 20 0 14 -4 26 -10 26 -5 0 -10 12 -10 28 0 21 2 24 10 12 9
-14 11 0 15 155 0 17 7 41 14 54 19 34 22 850 3 873 -7 8 -14 44 -16 79 -2 36
-9 65 -15 67 -9 3 -9 7 -1 17 9 11 7 19 -8 35 -16 17 -19 30 -14 62 3 27 2 39
-5 35 -14 -9 -24 18 -16 39 3 9 0 20 -8 24 -7 5 -14 21 -15 37 -3 50 -4 53
-20 53 -9 0 -14 7 -12 18 3 19 -23 82 -34 82 -4 0 -10 16 -14 35 -3 19 -10 35
-15 35 -5 0 -9 6 -9 13 0 8 -9 22 -20 32 -11 10 -19 23 -17 29 4 13 -6 27 -55
76 -21 21 -38 43 -38 50 0 13 -135 150 -149 150 -5 0 -27 18 -49 40 -22 22
-46 40 -53 40 -8 0 -27 12 -42 26 -15 14 -34 24 -41 21 -7 -3 -18 3 -24 13 -6
10 -25 21 -41 25 -17 4 -33 11 -36 16 -4 5 -17 9 -30 9 -13 0 -25 5 -27 11 -2
5 -22 13 -46 16 -23 3 -42 10 -42 14 0 5 -20 9 -45 9 -25 0 -45 5 -45 10 0 6
-35 10 -84 10 -47 0 -88 -4 -91 -10z m240 -433 c148 -71 315 -232 418 -402
126 -211 171 -802 107 -1422 -14 -128 -22 -292 -25 -463 -3 -235 -7 -349 -20
-590 -2 -36 -6 -132 -10 -215 -4 -82 -11 -163 -15 -180 -5 -16 -14 -106 -20
-200 -6 -93 -18 -224 -26 -290 -23 -199 -50 -485 -59 -625 -2 -41 -9 -111 -15
-155 -6 -44 -15 -116 -20 -160 -20 -189 -91 -372 -177 -459 -112 -115 -202
-145 -348 -120 -104 17 -276 78 -340 118 -59 38 -135 120 -159 171 -89 188
-134 725 -98 1165 11 142 15 174 46 430 8 69 20 193 26 275 14 206 34 400 59
600 6 44 15 159 20 255 16 276 47 678 62 798 5 40 9 130 9 199 0 122 5 183 36
423 8 63 21 225 29 360 16 265 23 313 60 376 49 83 183 141 330 143 49 1 74
-5 130 -32z"/>
<path d="M17060 5061 c-19 -10 -45 -33 -57 -51 -23 -33 -23 -37 -23 -374 0
-323 1 -343 20 -374 11 -18 34 -41 52 -52 32 -19 52 -20 436 -20 446 0 450 0
495 64 22 30 22 38 25 371 l3 341 -23 34 c-13 19 -39 45 -57 57 -34 23 -34 23
-435 23 -371 0 -404 -1 -436 -19z"/>
<path d="M27420 5061 c-19 -10 -45 -33 -57 -51 -23 -33 -23 -37 -23 -374 0
-323 1 -343 20 -374 11 -18 34 -41 52 -52 32 -19 52 -20 436 -20 446 0 450 0
495 64 22 30 22 38 25 371 l3 341 -23 34 c-13 19 -39 45 -57 57 -34 23 -34 23
-435 23 -371 0 -404 -1 -436 -19z"/>
<path d="M11230 4938 c-18 -13 -41 -39 -51 -58 -18 -32 -19 -67 -19 -517 l0
-483 -241 0 -242 0 -43 -44 -44 -43 0 -348 c0 -332 1 -349 20 -381 12 -18 40
-42 64 -53 39 -19 60 -21 264 -21 l222 0 0 -526 c0 -583 6 -663 61 -829 120
-358 385 -589 789 -687 77 -19 123 -21 510 -25 415 -4 426 -3 458 17 19 12 41
39 52 63 18 39 20 68 20 360 0 356 -1 364 -68 415 l-35 27 -301 5 -301 5 -47
27 c-58 35 -87 91 -99 191 -4 40 -8 271 -9 514 l0 442 349 3 c337 3 351 4 378
24 15 11 38 36 51 54 22 33 22 37 22 369 0 318 -1 338 -20 369 -11 18 -34 41
-52 52 -31 19 -51 20 -380 20 l-348 0 0 496 0 497 -44 43 -43 44 -420 0 c-419
0 -420 0 -453 -22z"/>
<path d="M1014 4891 c-23 -10 -52 -34 -65 -52 l-24 -34 -3 -1875 c-3 -2093 -8
-1935 66 -1985 l37 -25 434 0 434 0 43 44 44 43 0 612 0 611 433 0 c467 0 594
8 787 46 594 119 957 451 1061 974 25 127 35 366 20 503 -62 571 -400 943
-990 1092 -35 9 -123 26 -195 38 -125 20 -171 21 -1086 24 -920 3 -956 3 -996
-16z m1850 -895 c149 -34 271 -117 321 -220 35 -73 50 -187 36 -280 -25 -173
-109 -267 -296 -333 l-80 -28 -432 -3 -433 -3 0 447 0 446 408 -5 c321 -4 422
-8 476 -21z"/>
<path d="M23243 4895 c-39 -17 -73 -69 -73 -112 0 -33 1165 -3617 1199 -3690
30 -62 89 -123 146 -149 l50 -24 465 0 465 0 50 24 c53 24 112 83 141 138 10
18 181 535 381 1148 200 613 467 1431 594 1818 126 386 229 717 229 735 0 17
-9 47 -20 65 -38 62 -46 63 -503 60 -462 -3 -462 -3 -516 -78 -19 -26 -135
-382 -421 -1288 -217 -689 -397 -1252 -400 -1252 -3 0 -183 564 -400 1252
-285 902 -402 1262 -421 1288 -54 75 -53 75 -519 77 -342 2 -421 0 -447 -12z"/>
<path d="M8545 3930 c-206 -24 -409 -85 -596 -181 -400 -207 -660 -568 -720
-999 -18 -129 -15 -592 4 -715 71 -449 332 -802 745 -1005 239 -118 482 -170
792 -170 306 0 538 48 779 161 280 132 505 349 636 614 61 125 86 197 117 340
20 91 22 130 22 415 1 347 -7 415 -64 592 -156 487 -589 834 -1165 934 -107
18 -435 27 -550 14z m346 -894 c200 -36 337 -164 384 -358 22 -87 31 -351 16
-463 -27 -207 -103 -330 -250 -404 -151 -77 -377 -79 -529 -5 -78 38 -163 122
-200 196 -38 78 -49 124 -63 277 -12 131 0 321 25 417 67 255 318 393 617 340z"/>
<path d="M14735 3934 c-16 -2 -66 -9 -110 -15 -522 -69 -945 -389 -1128 -854
-88 -223 -121 -434 -114 -730 6 -237 28 -381 86 -556 74 -219 173 -380 326
-528 200 -193 453 -314 770 -368 169 -28 574 -26 744 5 367 66 719 254 934
499 84 97 155 220 170 299 9 46 -9 106 -38 131 l-26 23 -448 0 -449 0 -62 -47
c-163 -125 -247 -153 -449 -153 -140 0 -223 16 -303 56 -70 36 -149 113 -180
176 -23 46 -48 144 -48 185 0 11 174 13 969 13 l968 0 34 23 c18 12 44 38 56
56 22 32 23 44 23 200 -1 503 -140 882 -429 1172 -208 207 -461 337 -761 391
-110 19 -454 34 -535 22z m328 -789 c123 -32 213 -101 283 -217 38 -62 74
-157 74 -195 l0 -23 -504 0 -504 0 5 23 c16 70 49 153 83 206 73 113 153 173
273 206 69 18 219 19 290 0z"/>
<path d="M20238 3924 c-200 -31 -373 -112 -500 -234 l-78 -75 0 80 c0 91 -18
132 -72 165 -32 19 -52 20 -437 20 l-404 0 -43 -44 -44 -43 0 -1393 0 -1393
44 -43 43 -44 417 0 c459 0 453 -1 498 62 l23 33 6 820 c4 721 7 827 21 874
46 148 136 260 242 300 150 56 332 50 463 -14 84 -42 142 -102 185 -191 57
-122 58 -127 58 -979 0 -739 1 -782 19 -821 11 -24 33 -50 53 -62 35 -22 43
-22 448 -22 398 0 414 1 446 20 18 12 42 40 54 65 l21 44 -4 908 c-4 879 -5
912 -25 1021 -94 491 -368 801 -805 912 -199 50 -443 64 -629 34z"/>
<path d="M30245 3934 c-16 -2 -66 -9 -110 -15 -522 -69 -945 -389 -1128 -854
-88 -223 -121 -434 -114 -730 6 -237 28 -381 86 -556 74 -219 173 -380 326
-528 200 -193 453 -314 770 -368 169 -28 574 -26 744 5 367 66 719 254 934
499 84 97 155 220 170 299 9 46 -9 106 -38 131 l-26 23 -448 0 -449 0 -62 -47
c-163 -125 -247 -153 -449 -153 -140 0 -223 16 -303 56 -70 36 -149 113 -180
176 -23 46 -48 144 -48 185 0 11 174 13 969 13 l968 0 34 23 c18 12 44 38 56
56 22 32 23 44 23 200 -1 503 -140 882 -429 1172 -208 207 -461 337 -761 391
-110 19 -454 34 -535 22z m328 -789 c123 -32 213 -101 283 -217 38 -62 74
-157 74 -195 l0 -23 -504 0 -504 0 5 23 c16 70 49 153 83 206 73 113 153 173
273 206 69 18 219 19 290 0z"/>
<path d="M38415 3934 c-16 -2 -66 -9 -110 -15 -522 -69 -945 -389 -1128 -854
-88 -223 -121 -434 -114 -730 6 -237 28 -381 86 -556 74 -219 173 -380 326
-528 200 -193 453 -314 770 -368 169 -28 574 -26 744 5 367 66 719 254 934
499 84 97 155 220 170 299 9 46 -9 106 -38 131 l-26 23 -448 0 -449 0 -62 -47
c-163 -125 -247 -153 -449 -153 -140 0 -223 16 -303 56 -70 36 -149 113 -180
176 -23 46 -48 144 -48 185 0 11 174 13 969 13 l968 0 34 23 c18 12 44 38 56
56 22 32 23 44 23 200 -1 503 -140 882 -429 1172 -208 207 -461 337 -761 391
-110 19 -454 34 -535 22z m328 -789 c123 -32 213 -101 283 -217 38 -62 74
-157 74 -195 l0 -23 -504 0 -504 0 5 23 c16 70 49 153 83 206 73 113 153 173
273 206 69 18 219 19 290 0z"/>
<path d="M4804 3836 l-44 -43 0 -1393 0 -1393 44 -43 43 -44 420 0 c419 0 420
0 453 23 18 12 41 38 51 57 18 33 19 74 19 795 0 830 1 837 58 959 35 74 103
144 178 180 100 49 160 56 508 56 303 0 322 1 362 21 24 11 52 35 64 53 19 32
20 49 20 381 l0 348 -45 44 -44 45 -318 -4 c-284 -4 -326 -7 -394 -25 -146
-41 -286 -111 -393 -198 l-56 -46 0 83 c0 95 -17 134 -72 168 -31 19 -51 20
-422 20 l-389 0 -43 -44z"/>
<path d="M17024 3836 l-44 -43 0 -1393 0 -1393 44 -43 43 -44 420 0 c419 0
420 0 453 23 18 12 41 38 51 57 18 33 19 90 19 1400 0 1310 -1 1367 -19 1400
-10 19 -33 45 -51 58 -33 22 -34 22 -453 22 l-420 0 -43 -44z"/>
<path d="M27384 3836 l-44 -43 0 -1393 0 -1393 44 -43 43 -44 420 0 c419 0
420 0 453 23 18 12 41 38 51 57 18 33 19 90 19 1400 0 1310 -1 1367 -19 1400
-10 19 -33 45 -51 58 -33 22 -34 22 -453 22 l-420 0 -43 -44z"/>
<path d="M32226 3859 c-35 -28 -56 -70 -56 -113 0 -32 888 -2641 926 -2721 8
-18 31 -47 50 -66 l35 -34 402 -3 c283 -2 409 1 429 9 28 12 64 53 90 104 9
17 102 286 208 600 106 314 196 576 199 583 4 7 95 -246 205 -575 128 -378
209 -605 229 -637 56 -89 37 -86 485 -86 272 0 400 3 415 11 33 17 67 51 84
83 24 46 925 2677 930 2717 7 47 -21 106 -61 130 -29 18 -58 19 -447 19 -416
0 -416 0 -450 -23 -18 -12 -45 -40 -60 -62 -18 -26 -99 -264 -235 -681 l-208
-642 -82 252 c-45 138 -141 431 -213 651 -105 322 -137 407 -162 438 -56 68
-51 67 -424 67 -370 0 -366 1 -422 -64 -39 -43 -33 -27 -264 -738 -107 -329
-197 -594 -200 -590 -3 4 -98 290 -210 637 -146 451 -212 642 -234 674 -56 83
-44 81 -516 81 -407 0 -417 0 -443 -21z"/>
<path d="M40694 3836 l-44 -43 0 -1393 0 -1393 44 -43 43 -44 420 0 c419 0
420 0 453 23 18 12 41 38 51 57 18 33 19 74 19 795 0 830 1 837 58 959 35 74
103 144 178 180 100 49 160 56 508 56 303 0 322 1 362 21 24 11 52 35 64 53
19 32 20 49 20 381 l0 348 -45 44 -44 45 -318 -4 c-284 -4 -326 -7 -394 -25
-146 -41 -286 -111 -393 -198 l-56 -46 0 83 c0 95 -17 134 -72 168 -31 19 -51
20 -422 20 l-389 0 -43 -44z"/>
</g>
</svg>
